<?xml version="1.0" encoding="utf-8"?>
<!-- Generator: Adobe Illustrator 22.1.0, SVG Export Plug-In . SVG Version: 6.00 Build 0)  -->
<svg version="1.1" id="Camada_1" xmlns="http://www.w3.org/2000/svg" xmlns:xlink="http://www.w3.org/1999/xlink" x="0px" y="0px"
	 viewBox="0 0 88.8 105.5" style="enable-background:new 0 0 88.8 105.5;" xml:space="preserve">
<style type="text/css">
	.st0{clip-path:url(#SVGID_2_);fill:#FFF;}
</style>
<g>
	<defs>
		<rect id="SVGID_1_" x="-21.5" y="-12.1" width="132" height="132.1"/>
	</defs>
	<clipPath id="SVGID_2_">
		<use xlink:href="#SVGID_1_"  style="overflow:visible;"/>
	</clipPath>
	<path class="st0" d="M9.2,64c1,0,1.8-0.2,2.3-0.7c0.6-0.5,0.8-1.3,0.8-2.3v-0.4c0-1.1-0.3-1.8-0.8-2.3c-0.6-0.4-1.3-0.7-2.3-0.7
		H5.8V64H9.2z M5.8,56.1h3.1c1,0,1.8-0.2,2.3-0.6c0.5-0.4,0.7-1.1,0.7-2c0-0.4-0.1-0.8-0.2-1.1c-0.2-0.3-0.4-0.5-0.6-0.7
		c-0.3-0.2-0.6-0.3-1-0.4c-0.4-0.1-0.8-0.1-1.2-0.1h-3V56.1z M3.7,50.1c0-0.2,0.1-0.4,0.3-0.5c0.2-0.1,0.4-0.2,0.6-0.2h4.3
		c0.7,0,1.3,0,1.9,0.2c0.6,0.1,1.2,0.3,1.6,0.6c0.5,0.3,0.8,0.7,1.1,1.2c0.3,0.5,0.4,1.1,0.4,1.9c0,0.9-0.2,1.7-0.6,2.3
		c-0.4,0.6-0.9,1.1-1.5,1.3c0.4,0.1,0.7,0.3,1,0.5c0.3,0.2,0.6,0.4,0.8,0.7c0.2,0.3,0.4,0.7,0.5,1.1c0.1,0.4,0.2,0.9,0.2,1.5V61
		c0,0.8-0.1,1.6-0.4,2.2c-0.3,0.6-0.6,1.1-1,1.4c-0.4,0.4-1,0.6-1.6,0.8c-0.6,0.2-1.2,0.2-1.9,0.2H4.6c-0.3,0-0.5-0.1-0.7-0.2
		c-0.2-0.1-0.3-0.3-0.3-0.4V50.1z"/>
	<path class="st0" d="M25.8,54.3c0-1.1-0.3-1.9-0.9-2.4c-0.6-0.5-1.4-0.8-2.4-0.8c-1,0-1.8,0.3-2.4,0.8c-0.6,0.5-0.9,1.3-0.9,2.4V61
		c0,1.1,0.3,1.9,0.9,2.4c0.6,0.5,1.4,0.8,2.4,0.8c1,0,1.8-0.3,2.4-0.8c0.6-0.5,0.9-1.3,0.9-2.4V54.3z M22.5,65.8
		c-0.7,0-1.5-0.1-2.1-0.3c-0.7-0.2-1.2-0.4-1.7-0.8c-0.5-0.4-0.9-0.9-1.1-1.5c-0.3-0.6-0.4-1.4-0.4-2.3v-6.7c0-0.9,0.1-1.6,0.4-2.3
		c0.3-0.6,0.7-1.1,1.1-1.5c0.5-0.4,1.1-0.7,1.7-0.8c0.7-0.2,1.4-0.3,2.1-0.3c0.7,0,1.4,0.1,2.1,0.3c0.7,0.2,1.2,0.4,1.7,0.8
		c0.5,0.4,0.9,0.9,1.1,1.5c0.3,0.6,0.4,1.4,0.4,2.3V61c0,0.9-0.1,1.6-0.4,2.3c-0.3,0.6-0.7,1.1-1.1,1.5c-0.5,0.4-1.1,0.7-1.7,0.8
		C23.9,65.7,23.2,65.8,22.5,65.8"/>
	<path class="st0" d="M38.6,59.6c-0.1,0.2-0.2,0.3-0.4,0.4c-0.1,0.1-0.3,0.1-0.4,0.1c-0.1,0-0.3,0-0.4-0.1c-0.1-0.1-0.3-0.2-0.4-0.4
		l-3.7-6.4V65c0,0.2-0.1,0.4-0.3,0.5c-0.2,0.1-0.5,0.2-0.7,0.2c-0.3,0-0.5-0.1-0.7-0.2c-0.2-0.1-0.3-0.3-0.3-0.5V50.3
		c0-0.3,0.1-0.6,0.3-0.7c0.2-0.1,0.5-0.2,0.7-0.2c0.4,0,0.7,0.1,0.9,0.3c0.3,0.2,0.5,0.5,0.7,0.9l3.9,6.7l3.9-6.7
		c0.2-0.4,0.5-0.7,0.7-0.9c0.2-0.2,0.6-0.3,0.9-0.3c0.3,0,0.5,0.1,0.7,0.2c0.2,0.1,0.3,0.4,0.3,0.7V65c0,0.2-0.1,0.4-0.3,0.5
		c-0.2,0.1-0.5,0.2-0.7,0.2c-0.3,0-0.5-0.1-0.7-0.2c-0.2-0.1-0.3-0.3-0.3-0.5V53.3L38.6,59.6z"/>
	<path class="st0" d="M55.1,51.1V64h3.3c1,0,1.8-0.3,2.4-0.8c0.6-0.5,0.9-1.3,0.9-2.4v-6.6c0-1.1-0.3-1.9-0.9-2.4
		c-0.6-0.5-1.4-0.8-2.4-0.8H55.1z M58.4,49.4c0.7,0,1.4,0.1,2.1,0.3c0.7,0.2,1.2,0.4,1.7,0.8s0.9,0.9,1.1,1.5
		c0.3,0.6,0.4,1.4,0.4,2.3v6.6c0,0.9-0.1,1.6-0.4,2.3c-0.3,0.6-0.7,1.1-1.1,1.5c-0.5,0.4-1.1,0.7-1.7,0.8c-0.7,0.2-1.4,0.3-2.1,0.3
		H54c-0.3,0-0.5-0.1-0.7-0.2C53.1,65.3,53,65.2,53,65V50.1c0-0.2,0.1-0.3,0.3-0.4c0.2-0.1,0.4-0.2,0.7-0.2H58.4z"/>
	<path class="st0" d="M67.1,50.1c0-0.2,0.1-0.4,0.3-0.5c0.2-0.1,0.5-0.2,0.7-0.2c0.3,0,0.5,0.1,0.7,0.2c0.2,0.1,0.3,0.3,0.3,0.5V65
		c0,0.2-0.1,0.4-0.3,0.5c-0.2,0.1-0.5,0.2-0.7,0.2c-0.3,0-0.5-0.1-0.7-0.2c-0.2-0.1-0.3-0.3-0.3-0.5V50.1z"/>
	<path class="st0" d="M80.6,60.4L77.9,52L75,60.4H80.6z M72.7,65.7c-0.3,0-0.6-0.1-0.8-0.2c-0.3-0.1-0.4-0.3-0.4-0.6
		c0,0,0-0.1,0-0.2l5.1-14.8c0.1-0.2,0.2-0.4,0.5-0.5c0.3-0.1,0.5-0.2,0.8-0.2c0.3,0,0.5,0.1,0.8,0.2c0.2,0.1,0.4,0.3,0.5,0.5
		l5.1,14.8l0,0.1l0,0.1c0,0.2-0.1,0.4-0.4,0.6c-0.3,0.2-0.6,0.2-0.9,0.2c-0.2,0-0.3,0-0.5-0.1c-0.1-0.1-0.2-0.2-0.3-0.3l-1.1-3.3
		h-6.6l-1.1,3.3C73.4,65.5,73.1,65.7,72.7,65.7"/>
	<path class="st0" d="M5.7,69.9v6.4h3.3c1,0,1.8-0.3,2.3-0.8c0.6-0.5,0.8-1.3,0.8-2.3V73c0-1-0.3-1.8-0.8-2.3
		c-0.6-0.5-1.3-0.7-2.3-0.7H5.7z M3.6,68.9c0-0.2,0.1-0.3,0.2-0.4c0.1-0.1,0.3-0.2,0.6-0.2H9c0.7,0,1.4,0.1,2,0.2
		c0.6,0.2,1.2,0.4,1.6,0.8c0.5,0.4,0.8,0.8,1.1,1.4c0.3,0.6,0.4,1.3,0.4,2.2v0.2c0,0.8-0.1,1.6-0.4,2.1c-0.3,0.6-0.6,1.1-1.1,1.4
		c-0.5,0.4-1,0.6-1.7,0.8c-0.6,0.2-1.3,0.3-2,0.3H5.7v5.6c0,0.2-0.1,0.4-0.3,0.5C5.1,83.9,4.9,84,4.6,84s-0.5-0.1-0.7-0.2
		c-0.2-0.1-0.3-0.3-0.3-0.5V68.9z"/>
	<path class="st0" d="M23.2,78.9l-2.7-8.1l-2.7,8.1H23.2z M15.5,84c-0.3,0-0.5-0.1-0.8-0.2c-0.3-0.1-0.4-0.3-0.4-0.5
		c0,0,0-0.1,0-0.2l4.9-14.3c0.1-0.2,0.2-0.4,0.5-0.5c0.2-0.1,0.5-0.2,0.8-0.2c0.3,0,0.5,0.1,0.8,0.2c0.2,0.1,0.4,0.3,0.5,0.5
		l4.9,14.3l0,0.1l0,0.1c0,0.2-0.1,0.4-0.4,0.5C26,83.9,25.7,84,25.5,84c-0.2,0-0.3,0-0.5-0.1c-0.1-0.1-0.2-0.2-0.3-0.3l-1.1-3.2
		h-6.3l-1.1,3.2C16.2,83.9,15.9,84,15.5,84"/>
	<path class="st0" d="M30.9,69.9v12.4H34c1,0,1.8-0.2,2.3-0.7c0.6-0.5,0.8-1.3,0.8-2.3V73c0-1-0.3-1.8-0.8-2.3
		c-0.6-0.5-1.3-0.7-2.3-0.7H30.9z M34,68.3c0.7,0,1.4,0.1,2,0.2c0.6,0.2,1.2,0.4,1.7,0.8c0.5,0.4,0.8,0.9,1.1,1.4
		c0.3,0.6,0.4,1.3,0.4,2.2v6.3c0,0.9-0.1,1.6-0.4,2.2c-0.3,0.6-0.6,1.1-1.1,1.4c-0.5,0.4-1,0.6-1.7,0.8c-0.6,0.2-1.3,0.2-2,0.2h-4.3
		c-0.3,0-0.5-0.1-0.7-0.2c-0.2-0.1-0.3-0.3-0.3-0.4V68.9c0-0.2,0.1-0.3,0.3-0.4c0.2-0.1,0.4-0.2,0.7-0.2H34z"/>
	<path class="st0" d="M50.1,78.9l-2.7-8.1l-2.7,8.1H50.1z M42.4,84c-0.3,0-0.5-0.1-0.8-0.2c-0.3-0.1-0.4-0.3-0.4-0.5
		c0,0,0-0.1,0-0.2l4.9-14.3c0.1-0.2,0.2-0.4,0.5-0.5c0.2-0.1,0.5-0.2,0.8-0.2c0.3,0,0.5,0.1,0.8,0.2s0.4,0.3,0.5,0.5l4.9,14.3l0,0.1
		l0,0.1c0,0.2-0.1,0.4-0.4,0.5c-0.3,0.2-0.6,0.2-0.8,0.2c-0.2,0-0.3,0-0.5-0.1c-0.1-0.1-0.2-0.2-0.3-0.3l-1.1-3.2h-6.3l-1.1,3.2
		C43.1,83.9,42.8,84,42.4,84"/>
	<path class="st0" d="M57.8,69.9v5.6h3.1c1,0,1.8-0.2,2.4-0.6c0.6-0.4,0.9-1.2,0.9-2.2c0-1-0.3-1.7-0.9-2.1
		c-0.6-0.4-1.4-0.6-2.4-0.6H57.8z M55.7,68.9c0-0.2,0.1-0.3,0.2-0.4c0.1-0.1,0.3-0.2,0.5-0.2h4.4c0.7,0,1.4,0.1,2.1,0.2
		c0.7,0.1,1.2,0.4,1.7,0.7c0.5,0.3,0.9,0.8,1.2,1.3c0.3,0.6,0.4,1.2,0.4,2.1c0,0.7-0.1,1.2-0.3,1.7c-0.2,0.5-0.4,0.9-0.8,1.2
		s-0.7,0.6-1.1,0.8c-0.4,0.2-0.9,0.4-1.4,0.4l3.6,6c0.1,0.1,0.1,0.2,0.1,0.3c0,0.2-0.1,0.5-0.4,0.6C65.6,84,65.4,84,65.1,84
		c-0.2,0-0.4-0.1-0.5-0.2c-0.1-0.1-0.3-0.3-0.4-0.5L60.5,77h-2.8v6.3c0,0.2-0.1,0.4-0.3,0.5C57.2,83.9,57,84,56.7,84
		c-0.3,0-0.5-0.1-0.7-0.2c-0.2-0.1-0.3-0.3-0.3-0.5V68.9z"/>
	<path class="st0" d="M68.8,68.9c0-0.2,0.1-0.4,0.3-0.5c0.2-0.1,0.4-0.1,0.7-0.1c0.3,0,0.5,0,0.7,0.1c0.2,0.1,0.3,0.3,0.3,0.5v14.4
		c0,0.2-0.1,0.4-0.3,0.5c-0.2,0.1-0.4,0.2-0.7,0.2c-0.3,0-0.5-0.1-0.7-0.2c-0.2-0.1-0.3-0.3-0.3-0.5V68.9z"/>
	<path class="st0" d="M81.8,78.9l-2.7-8.1l-2.7,8.1H81.8z M74.2,84c-0.3,0-0.5-0.1-0.8-0.2c-0.3-0.1-0.4-0.3-0.4-0.5
		c0,0,0-0.1,0-0.2l4.9-14.3c0.1-0.2,0.2-0.4,0.5-0.5c0.2-0.1,0.5-0.2,0.8-0.2c0.3,0,0.5,0.1,0.8,0.2s0.4,0.3,0.5,0.5l4.9,14.3l0,0.1
		l0,0.1c0,0.2-0.1,0.4-0.4,0.5c-0.3,0.2-0.6,0.2-0.8,0.2c-0.2,0-0.3,0-0.5-0.1c-0.1-0.1-0.2-0.2-0.3-0.3l-1.1-3.2H76l-1.1,3.2
		C74.8,83.9,74.6,84,74.2,84"/>
	<path class="st0" d="M44.1,42.2l2.4,0c6.2,0,12,0,15.6-0.7c4.8-0.8,5.4-2.3,5.4-3.4c0-5.9-11.1-11-23.4-11c-12.3,0-22.7,5-22.7,11
		c0,4,10.3,4,20.3,4L44.1,42.2z M46.5,44.1h-2.4h-2.4c-11.9,0-22.2,0-22.2-5.9c0-7.2,10.8-12.8,24.6-12.8c13.8,0,25.3,5.6,25.3,12.8
		c0,4.1-5.2,4.9-6.9,5.2C58.7,44.1,52.8,44.1,46.5,44.1"/>
	<path class="st0" d="M51.8,39c-0.2,0-0.4-0.1-0.6-0.2c-1-1-2.2-2.3-2.4-4.6c-0.2-2,0.1-4,1.5-5.4c0.4-0.4,1-0.4,1.3,0
		c0.4,0.4,0.3,0.9,0,1.3c-1.7,2-0.9,5.4-0.3,5.8c0-2.1,0.7-4.1,2.7-6.7c0.3-0.4,0.9-0.5,1.3-0.2c0.4,0.3,0.5,0.9,0.2,1.3
		c-1.4,1.8-2.6,4.2-2.7,7.7c0,0.4-0.2,0.7-0.6,0.8C52.1,38.9,51.9,39,51.8,39"/>
	<path class="st0" d="M44.7,38.2c-0.2,0-0.4,0-0.6-0.2c-1.1-0.9-2.4-2.1-2.9-4.3c-0.4-2-0.3-4,1-5.5c0.3-0.4,0.9-0.5,1.3-0.1
		c0.4,0.3,0.4,0.9,0.1,1.3c-1.5,2.2-0.3,5.5,0.3,5.8c-0.3-2.1,0.3-4.2,2-6.9c0.3-0.4,0.9-0.6,1.3-0.3c0.4,0.3,0.6,0.9,0.3,1.3
		c-1.2,2-2.2,4.4-1.9,7.9c0,0.4-0.2,0.7-0.5,0.9C45,38.1,44.9,38.2,44.7,38.2"/>
	<path class="st0" d="M38.7,38.7c-0.2,0.1-0.4,0.1-0.6,0c-1.2-0.7-2.7-1.6-3.6-3.7c-0.8-1.9-1-3.9-0.1-5.6c0.2-0.5,0.8-0.6,1.3-0.4
		c0.5,0.2,0.6,0.8,0.4,1.3c-1,2.4,0.7,5.5,1.3,5.7c-0.7-2-0.5-4.1,0.7-7.2c0.2-0.5,0.7-0.7,1.2-0.5c0.5,0.2,0.7,0.7,0.5,1.2
		c-0.8,2.2-1.3,4.7-0.4,8.1c0.1,0.4,0,0.7-0.3,1C39,38.6,38.9,38.7,38.7,38.7"/>
	<path class="st0" d="M16,37.3H2.4c-0.5,0-0.9,0.4-0.9,0.9c0,0.5,0.4,0.9,0.9,0.9H16c0.5,0,0.9-0.4,0.9-0.9
		C16.9,37.7,16.5,37.3,16,37.3"/>
	<path class="st0" d="M86.6,37.3H73c-0.5,0-0.9,0.4-0.9,0.9c0,0.5,0.4,0.9,0.9,0.9h13.6c0.5,0,0.9-0.4,0.9-0.9
		C87.5,37.7,87.1,37.3,86.6,37.3"/>
	<path class="st0" d="M44.5,2.3c-0.5,0-0.9,0.4-0.9,0.9l0,18.5c0,0.5,0.4,0.9,0.9,0.9c0.5,0,0.9-0.4,0.9-0.9l0-18.5
		C45.4,2.8,45,2.3,44.5,2.3"/>
	<path class="st0" d="M81.9,15.5c-0.2,0-0.5,0.1-0.7,0.3L68.2,28.9c-0.4,0.4-0.4,1,0,1.3c0.2,0.2,0.4,0.3,0.7,0.3
		c0.2,0,0.5-0.1,0.7-0.3l13.1-13.1c0.4-0.4,0.4-1,0-1.3C82.4,15.6,82.2,15.5,81.9,15.5"/>
	<path class="st0" d="M6.9,15.5c-0.2,0-0.5,0.1-0.7,0.3c-0.4,0.4-0.4,1,0,1.3l13.1,13.1c0.2,0.2,0.4,0.3,0.7,0.3
		c0.2,0,0.5-0.1,0.7-0.3c0.4-0.4,0.4-1,0-1.3L7.6,15.8C7.4,15.6,7.1,15.5,6.9,15.5"/>
	<path class="st0" d="M25.5,10.5c-0.2,0-0.3,0-0.5,0.1c-0.5,0.3-0.6,0.8-0.3,1.3l6.8,11.7c0.2,0.3,0.5,0.5,0.8,0.5
		c0.2,0,0.3,0,0.5-0.1c0.4-0.3,0.6-0.8,0.3-1.3L26.3,11C26.1,10.7,25.8,10.5,25.5,10.5"/>
	<path class="st0" d="M63.4,10.6c-0.3,0-0.6,0.2-0.8,0.5l-6.8,11.7c-0.3,0.5-0.1,1,0.3,1.3c0.1,0.1,0.3,0.1,0.5,0.1
		c0.3,0,0.6-0.2,0.8-0.5L64.2,12c0.3-0.5,0.1-1-0.3-1.3C63.7,10.7,63.6,10.6,63.4,10.6"/>
	<path class="st0" d="M5.6,91c-0.2,0-0.3,0.1-0.4,0.2c-0.1,0.1-0.1,0.2-0.1,0.3c0,0.1,0,0.2,0.1,0.3c0.1,0.1,0.2,0.1,0.3,0.2
		c0,0,0.1,0,0.1,0c0.1,0,0.1,0,0.2-0.1c0.1-0.1,0.1-0.2,0.2-0.3c0-0.1,0-0.3,0-0.4C5.8,91.1,5.7,91,5.6,91 M5.2,92.9
		c-0.1,0-0.1,0-0.2,0.1c-0.1,0-0.2,0.1-0.2,0.3c0,0.1-0.1,0.3-0.1,0.5c0,0.2-0.1,0.4-0.2,0.6c-0.1,0.2-0.1,0.5-0.2,0.8
		c-0.1,0.3-0.1,0.5-0.2,0.8C4.1,96.3,4,96.7,4,97.2C4,97.6,4,98,4,98.3c0.1,0.4,0.2,0.7,0.4,0.9c0.2,0.2,0.4,0.4,0.8,0.5
		c0.1,0,0.1,0,0.2,0c0.2,0,0.3,0,0.5-0.1C6,99.4,6.2,99.2,6.4,99c0.2-0.2,0.3-0.5,0.5-0.8c0-0.1,0.1-0.1,0.1-0.2c0-0.1,0-0.2,0-0.2
		C7,97.4,7,97,7.1,96.5c-0.1,0.2-0.2,0.4-0.2,0.5c-0.1,0.3-0.2,0.6-0.4,0.8c-0.1,0.3-0.3,0.5-0.4,0.7c-0.1,0.2-0.3,0.3-0.4,0.5
		c-0.1,0.1-0.2,0.1-0.3,0.1c0,0-0.1,0-0.1,0c-0.2-0.1-0.3-0.2-0.4-0.4c-0.1-0.2-0.1-0.4-0.1-0.7c0-0.3,0-0.6,0-0.9
		c0-0.3,0.1-0.7,0.1-1C5,95.8,5,95.5,5.1,95.2c0.1-0.3,0.1-0.6,0.2-0.8c0.1-0.3,0.1-0.5,0.2-0.7c0-0.2,0.1-0.4,0.1-0.5
		c0-0.1,0-0.2-0.1-0.2C5.4,92.9,5.3,92.9,5.2,92.9C5.2,92.9,5.2,92.9,5.2,92.9 M7.8,95.5c0,0.1,0,0.2,0,0.4c0-0.1,0-0.1,0.1-0.1
		C7.9,95.7,7.9,95.6,7.8,95.5L7.8,95.5z"/>
	<path class="st0" d="M7.9,92.8c-0.1,0-0.1,0-0.2,0.1c-0.1,0-0.1,0.1-0.1,0.2c-0.1,0.7-0.2,1.3-0.2,1.9c-0.1,0.5-0.1,1-0.2,1.5
		c0,0,0,0.1,0,0.1C7,97,7,97.4,6.9,97.8c0,0.1,0,0.2,0,0.2c0,0.4-0.1,0.8-0.2,1.3c0,0.1,0,0.1,0.1,0.2c0.1,0,0.1,0.1,0.2,0.1
		c0,0,0.1,0,0.1,0c0.1,0,0.1,0,0.2,0c0.1,0,0.1-0.1,0.2-0.1l0,0c0.1-0.3,0.1-0.7,0.2-1.2c0.1-0.5,0.2-0.9,0.4-1.4
		c0.1-0.5,0.3-1,0.5-1.4c0.2-0.5,0.4-0.9,0.6-1.2c0.2-0.4,0.4-0.6,0.6-0.8c0.1-0.1,0.3-0.2,0.4-0.2c0.1,0,0.1,0,0.2,0
		c0.2,0.1,0.4,0.2,0.4,0.5c0.1,0.2,0.1,0.5,0.1,0.8c0,0.3-0.1,0.7-0.1,1c-0.1,0.4-0.2,0.8-0.2,1.1c-0.1,0.4-0.2,0.7-0.2,1.1
		c-0.1,0.4-0.1,0.7-0.1,0.9c0,0.3,0.1,0.5,0.2,0.7c0.1,0.2,0.3,0.2,0.6,0.2h0c0.2,0,0.4-0.1,0.6-0.2c0.2-0.1,0.3-0.3,0.5-0.6
		s0.3-0.5,0.4-0.7c0,0,0-0.1,0.1-0.1c0,0,0-0.1,0-0.1c0-0.3,0-0.5,0-0.7c0-0.2,0-0.3,0.1-0.5c0,0,0,0.1,0,0.1
		c-0.1,0.3-0.2,0.5-0.3,0.8c-0.1,0.3-0.2,0.6-0.4,0.8c-0.1,0.2-0.3,0.5-0.4,0.6c-0.2,0.2-0.3,0.2-0.5,0.2c-0.1,0-0.2-0.1-0.3-0.3
		c0-0.2,0-0.4,0-0.7c0-0.3,0.1-0.6,0.2-1c0.1-0.4,0.2-0.7,0.2-1.1c0.1-0.4,0.1-0.8,0.2-1.1c0.1-0.4,0.1-0.7,0-1
		c0-0.3-0.1-0.6-0.2-0.8c-0.1-0.2-0.3-0.4-0.6-0.4c-0.1,0-0.2,0-0.3,0c-0.1,0-0.3,0-0.4,0.1c-0.2,0.1-0.4,0.2-0.6,0.4
		C9,93.5,8.9,93.7,8.7,94c-0.1,0.3-0.3,0.5-0.4,0.8C8.2,95,8.1,95.3,8,95.5c-0.1,0.2-0.2,0.5-0.2,0.6c0-0.1,0-0.2,0-0.2
		c0-0.1,0-0.2,0-0.4c0-0.3,0.1-0.6,0.1-1c0.1-0.5,0.2-1,0.2-1.6c0-0.1,0-0.2-0.1-0.2C8,92.8,8,92.8,7.9,92.8L7.9,92.8"/>
	<path class="st0" d="M17.4,92.8C17.4,92.8,17.3,92.8,17.4,92.8c-0.2,0-0.2,0.1-0.3,0.1L17,93.1c-0.3-0.1-0.6-0.2-0.9-0.2
		c-0.2,0-0.3,0-0.5,0.1c-0.5,0.1-1,0.4-1.4,0.7c-0.4,0.4-0.8,0.9-1.1,1.5c-0.2,0.4-0.4,0.9-0.5,1.5c0,0.2,0,0.3-0.1,0.5
		c0,0.2,0,0.4,0,0.7c0,0,0,0.1,0,0.1c0,0.2,0.1,0.5,0.2,0.7c0.1,0.3,0.2,0.5,0.4,0.7c0.2,0.2,0.4,0.3,0.6,0.4c0,0,0.1,0,0.1,0
		c0.2,0,0.4-0.1,0.6-0.2c0.2-0.2,0.5-0.4,0.7-0.6c0.2-0.3,0.4-0.5,0.6-0.8c0.2-0.3,0.3-0.5,0.3-0.6c-0.1,0.6-0.2,1.3-0.2,1.9
		c-0.2,0.3-0.3,0.5-0.5,0.9c-0.2,0.3-0.3,0.7-0.5,1c-0.1,0.3-0.2,0.7-0.3,1c0,0.3,0,0.6,0.1,0.9c0.1,0.2,0.2,0.3,0.3,0.4
		c0.1,0.1,0.2,0.1,0.4,0.1c0.1,0,0.3,0,0.4-0.1c0.1-0.1,0.2-0.2,0.3-0.3c0.1-0.2,0.2-0.4,0.2-0.7c0-0.2,0.1-0.5,0.1-0.7
		c0-0.2,0-0.5,0-0.7c0-0.2,0-0.5,0-0.7c0-0.1,0-0.3,0-0.4c0-0.1,0-0.3,0-0.4c0.2-0.3,0.4-0.6,0.6-0.9c0.2-0.3,0.4-0.5,0.6-0.8
		c0.2-0.3,0.4-0.5,0.7-0.8c0,0,0.1-0.1,0.1-0.1c0-0.1,0-0.2,0-0.3c0-0.2,0-0.4,0.1-0.6c-0.2,0.3-0.4,0.5-0.5,0.7
		c-0.2,0.2-0.4,0.5-0.5,0.7c-0.2,0.2-0.3,0.4-0.5,0.6c-0.2,0.2-0.3,0.4-0.5,0.6c0-0.4,0.1-0.9,0.2-1.3c0.1-0.5,0.2-1,0.3-1.4
		c0.1-0.5,0.3-0.9,0.4-1.4c0.1-0.4,0.3-0.8,0.4-1.2c0-0.1-0.1-0.2-0.1-0.2C17.4,92.8,17.4,92.8,17.4,92.8 M13.8,99.2L13.8,99.2
		c-0.2,0-0.3-0.1-0.3-0.2c-0.1-0.2-0.1-0.4-0.2-0.6c0-0.2,0-0.4,0-0.7c0-0.2,0-0.4,0-0.5c0.1-0.6,0.2-1.2,0.4-1.6
		c0.2-0.4,0.4-0.8,0.7-1.1c0.3-0.3,0.5-0.5,0.8-0.7c0.3-0.2,0.5-0.3,0.7-0.3c0.2,0,0.3-0.1,0.4-0.1c0,0,0.1,0,0.1,0
		c0.2,0,0.3,0.1,0.3,0.1c-0.1,0.3-0.1,0.6-0.2,0.8c0,0.2-0.1,0.3-0.1,0.4c0,0.1,0,0.1,0,0.1l0,0.1c-0.1,0.4-0.2,0.8-0.3,1.2
		c-0.2,0.4-0.4,0.8-0.6,1.1c-0.2,0.4-0.4,0.7-0.7,1c-0.2,0.3-0.4,0.5-0.6,0.7C14.1,99.1,13.9,99.2,13.8,99.2 M15.2,103
		c-0.1,0-0.1,0-0.2-0.1c-0.1-0.1-0.1-0.3-0.1-0.5c0-0.1,0-0.3,0.1-0.5c0-0.2,0.1-0.4,0.1-0.5c0.1-0.2,0.1-0.4,0.2-0.5
		c0.1-0.2,0.2-0.3,0.3-0.5v0.4v0.5c0,0.2,0,0.4,0,0.6c0,0.2,0,0.4-0.1,0.5c0,0.2-0.1,0.3-0.1,0.4C15.4,102.9,15.3,103,15.2,103
		C15.3,103,15.2,103,15.2,103"/>
	<path class="st0" d="M19.1,92.7c-0.1,0-0.2,0-0.2,0c-0.1,0-0.1,0.1-0.2,0.2c0,0.2-0.1,0.5-0.1,0.9c0,0.4-0.1,0.8-0.1,1.2
		c0,0.2,0,0.5-0.1,0.7c0,0.2,0,0.4-0.1,0.6c0,0.1,0,0.2,0,0.3c0,0.3-0.1,0.7-0.1,1c0,0.4-0.1,0.7-0.1,1c0,0.3,0,0.5-0.1,0.6
		c0,0.1,0,0.1,0.1,0.2l0.2,0.1l0.2-0.1c0.1,0,0.1-0.1,0.1-0.2c0-0.1,0.1-0.4,0.1-0.8c0.1-0.4,0.1-0.8,0.2-1.4
		c0.1-0.5,0.2-1.1,0.3-1.7c0.1-0.6,0.2-1.2,0.3-1.7c0.1,0.1,0.2,0.2,0.2,0.3c0.1,0.1,0.2,0.2,0.3,0.3c0.1,0.1,0.2,0.1,0.4,0.2
		c0.1,0,0.2,0.1,0.3,0.1c0,0,0.1,0,0.1,0c0,0.3-0.1,0.6-0.1,0.9c-0.1,0.3-0.1,0.7-0.2,1c-0.1,0.3-0.1,0.7-0.1,1c0,0.3,0,0.6,0,0.9
		c0,0.3,0.1,0.5,0.3,0.7c0.1,0.2,0.3,0.3,0.6,0.4c0.1,0,0.2,0,0.3,0c0.2,0,0.3,0,0.5-0.1c0.2-0.1,0.4-0.4,0.6-0.7
		c0.1-0.1,0.2-0.3,0.2-0.5c0,0,0,0,0-0.1c0-0.3,0-0.6,0-0.9c-0.1,0.3-0.2,0.6-0.3,0.9c-0.1,0.3-0.3,0.5-0.4,0.7
		c-0.1,0.2-0.3,0.2-0.4,0.2c0,0,0,0,0,0c-0.2,0-0.3-0.1-0.4-0.3c-0.1-0.2-0.2-0.4-0.2-0.6c0-0.3,0-0.5,0-0.9c0-0.3,0.1-0.6,0.1-1
		c0-0.3,0.1-0.7,0.2-1c0.1-0.3,0.1-0.7,0.1-1c0-0.2,0-0.3-0.1-0.3c0,0-0.1,0-0.2,0c0,0-0.1,0-0.1,0c0,0,0,0-0.1,0
		c-0.1,0-0.2,0-0.3,0c-0.1,0-0.3-0.1-0.4-0.2c-0.1-0.1-0.3-0.2-0.4-0.3c-0.1-0.1-0.2-0.3-0.3-0.5v0h0c0-0.1-0.1-0.1-0.2-0.2
		C19.3,92.8,19.2,92.7,19.1,92.7C19.1,92.7,19.1,92.7,19.1,92.7"/>
	<path class="st0" d="M25.1,92.8c-0.1,0-0.2,0-0.3,0c-0.3,0.1-0.6,0.3-0.9,0.7c-0.3,0.4-0.5,0.8-0.7,1.4c-0.2,0.6-0.3,1.2-0.3,1.9
		c0,0.1,0,0.3,0,0.4c0,0.3,0,0.6,0,0.9c0,0,0,0,0,0.1c0,0.4,0.1,0.7,0.3,0.9c0.2,0.2,0.4,0.4,0.7,0.4h0c0.3,0,0.7-0.2,1.3-0.6
		c0.5-0.3,0.9-0.8,1.2-1.3c0,0,0-0.1,0.1-0.1c0-0.5,0.2-1,0.3-1.5c0.1-0.2,0.1-0.3,0.2-0.5l0,0c-0.1,0.3-0.3,0.6-0.4,0.9
		c-0.1,0.3-0.3,0.5-0.4,0.8c-0.2,0.2-0.3,0.5-0.5,0.7c-0.2,0.2-0.4,0.4-0.7,0.6c-0.3,0.2-0.5,0.3-0.7,0.3c0,0,0,0-0.1,0
		c-0.2,0-0.3-0.1-0.4-0.3c-0.1-0.2-0.1-0.5-0.2-0.8c0-0.3,0-0.7,0.1-1c0.2-0.1,0.5-0.2,0.7-0.4c0.2-0.2,0.5-0.4,0.7-0.6
		c0.2-0.2,0.4-0.5,0.6-0.7c0.2-0.3,0.3-0.5,0.4-0.7c0.1-0.2,0.1-0.5,0.1-0.7c0-0.2-0.1-0.4-0.3-0.5C25.6,92.9,25.4,92.8,25.1,92.8
		 M23.7,96.1c0.1-0.3,0.2-0.7,0.3-1.1c0.2-0.4,0.3-0.7,0.5-1c0.2-0.3,0.4-0.5,0.6-0.6c0.1,0,0.1-0.1,0.2-0.1c0.1,0,0.2,0.1,0.3,0.2
		c0.1,0.1,0.1,0.2,0,0.4c0,0.2-0.1,0.3-0.2,0.5c-0.1,0.2-0.2,0.4-0.3,0.5c-0.1,0.2-0.3,0.4-0.4,0.5c-0.2,0.2-0.3,0.3-0.5,0.4
		C24,96,23.8,96.1,23.7,96.1"/>
	<path class="st0" d="M31.8,90.2c-0.1,0-0.1,0.1-0.2,0.2c-0.1,0.4-0.2,0.9-0.3,1.3c-0.1,0.5-0.2,0.9-0.3,1.2
		c-0.3-0.1-0.6-0.2-0.9-0.2c0,0-0.1,0-0.1,0c-0.3,0-0.6,0.1-0.9,0.3c-0.3,0.2-0.6,0.4-0.8,0.7c-0.3,0.3-0.5,0.6-0.7,0.9
		c-0.2,0.3-0.4,0.7-0.5,1c-0.1,0.2-0.1,0.3-0.2,0.5c-0.2,0.5-0.3,1-0.3,1.5c0,0,0,0,0,0c0,0.5,0,0.9,0.1,1.3
		c0.1,0.4,0.3,0.6,0.6,0.7c0.1,0,0.2,0.1,0.3,0.1c0.1,0,0.2,0,0.2,0c0.2,0,0.4-0.1,0.5-0.3c0.2-0.1,0.3-0.3,0.5-0.5
		c0.2-0.2,0.3-0.4,0.4-0.6c0.2-0.2,0.3-0.5,0.4-0.8c0.1-0.3,0.2-0.5,0.3-0.7c0.1-0.2,0.2-0.4,0.2-0.6c0-0.1,0.1-0.2,0.1-0.2
		c0,0.3-0.1,0.6-0.1,1c-0.1,0.4-0.1,0.9-0.1,1.3c0,0.2,0,0.4,0,0.5c0,0.2,0.1,0.3,0.1,0.4c0.1,0.1,0.1,0.2,0.2,0.3
		c0.1,0.1,0.2,0.1,0.3,0.2c0,0,0.1,0,0.1,0c0.1,0,0.3,0,0.4-0.1c0.2-0.1,0.3-0.2,0.5-0.4c0.1-0.2,0.3-0.4,0.4-0.6
		c0.1-0.1,0.2-0.3,0.2-0.4c0-0.3,0-0.6,0-0.9c0-0.1,0-0.2,0-0.2c-0.1,0.2-0.1,0.4-0.2,0.6c-0.1,0.2-0.2,0.4-0.3,0.7
		c-0.1,0.2-0.2,0.4-0.3,0.6c-0.1,0.2-0.2,0.3-0.3,0.4c-0.1,0.1-0.2,0.1-0.3,0.1c0,0,0,0-0.1,0c-0.1,0-0.2-0.1-0.2-0.3
		c0-0.2-0.1-0.5,0-0.8c0-0.5,0.1-1,0.2-1.6c0.1-0.6,0.2-1.2,0.3-1.8c0.1-0.2,0.1-0.5,0.2-0.9c0.1-0.4,0.2-0.8,0.3-1.1
		c0.1-0.4,0.2-0.8,0.3-1.2c0.1-0.4,0.2-0.7,0.2-0.9C32.1,90.4,32,90.3,31.8,90.2C31.9,90.2,31.9,90.2,31.8,90.2 M27.6,99.2
		c0,0-0.1,0-0.1,0c-0.2-0.1-0.3-0.2-0.3-0.5c0-0.3,0-0.6,0.1-1c0.1-0.4,0.2-0.8,0.4-1.3c0.2-0.5,0.4-0.9,0.6-1.3
		c0.2-0.3,0.4-0.6,0.6-0.8c0.2-0.2,0.4-0.5,0.6-0.6c0.2-0.2,0.4-0.3,0.7-0.3c0.1,0,0.1,0,0.2,0c0.2,0,0.3,0,0.5,0.1
		c-0.1,0.3-0.2,0.7-0.4,1.1c-0.1,0.4-0.3,0.8-0.5,1.2c-0.2,0.4-0.3,0.8-0.5,1.2c-0.2,0.4-0.4,0.7-0.6,1.1c-0.3,0.4-0.5,0.8-0.7,1
		C28,99.1,27.8,99.2,27.6,99.2"/>
	<path class="st0" d="M33.9,91c-0.2,0-0.3,0.1-0.4,0.2c-0.1,0.1-0.1,0.2-0.1,0.3c0,0.1,0,0.2,0.1,0.3c0.1,0.1,0.2,0.1,0.3,0.2
		c0,0,0.1,0,0.1,0c0.1,0,0.1,0,0.2-0.1c0.1-0.1,0.1-0.2,0.2-0.3c0-0.1,0-0.3,0-0.4C34.2,91.1,34.1,91,33.9,91 M33.5,92.9
		c-0.1,0-0.1,0-0.2,0.1c-0.1,0-0.2,0.1-0.2,0.3c0,0.1-0.1,0.3-0.1,0.5c0,0.2-0.1,0.4-0.2,0.6c-0.1,0.2-0.1,0.5-0.2,0.8
		c-0.1,0.3-0.1,0.5-0.2,0.8c-0.1,0.4-0.1,0.7-0.1,1.1c0,0.1,0,0.1,0,0.2c0,0.3,0,0.6,0,0.9c0,0.1,0,0.2,0,0.3
		c0.1,0.4,0.2,0.7,0.4,0.9c0.2,0.2,0.4,0.4,0.8,0.5c0.1,0,0.1,0,0.2,0c0.2,0,0.3,0,0.5-0.1c0.2-0.1,0.4-0.3,0.5-0.5
		c0.2-0.2,0.3-0.5,0.5-0.8c0.1-0.1,0.1-0.2,0.2-0.3c0-0.3,0-0.7,0-1c0-0.1,0-0.1,0-0.2c0,0.1-0.1,0.2-0.1,0.3
		c-0.1,0.3-0.2,0.6-0.4,0.8c-0.1,0.3-0.3,0.5-0.4,0.7c-0.1,0.2-0.3,0.3-0.4,0.5c-0.1,0.1-0.2,0.1-0.3,0.1c0,0-0.1,0-0.1,0
		c-0.2-0.1-0.3-0.2-0.4-0.4c-0.1-0.2-0.1-0.4-0.2-0.7c0-0.3,0-0.6,0-0.9c0-0.3,0.1-0.7,0.1-1c0.1-0.3,0.1-0.6,0.2-0.9
		c0.1-0.3,0.1-0.6,0.2-0.8c0.1-0.3,0.1-0.5,0.2-0.7c0-0.2,0.1-0.4,0.1-0.5c0-0.1,0-0.2-0.1-0.2C33.7,92.9,33.7,92.9,33.5,92.9
		C33.6,92.9,33.5,92.9,33.5,92.9"/>
	<path class="st0" d="M37.6,92.8c-0.1,0-0.2,0-0.3,0c-0.3,0.1-0.7,0.3-0.9,0.7c-0.3,0.4-0.5,0.8-0.7,1.4c-0.2,0.5-0.3,1.1-0.3,1.8
		c0,0.1,0,0.1,0,0.2c0,0.3,0,0.7,0,1c0,0.1,0,0.2,0,0.3c0,0.4,0.1,0.8,0.3,1c0.2,0.2,0.4,0.4,0.7,0.4h0c0.3,0,0.7-0.2,1.3-0.6
		c0.5-0.3,0.9-0.8,1.2-1.3c0.1-0.2,0.3-0.4,0.4-0.7c0-0.2,0-0.4,0.1-0.6c0-0.2,0-0.5,0.1-0.7c-0.1,0.3-0.3,0.6-0.4,0.8
		c-0.1,0.3-0.3,0.5-0.4,0.8c-0.2,0.2-0.3,0.5-0.5,0.7c-0.2,0.2-0.4,0.4-0.7,0.6c-0.3,0.2-0.5,0.3-0.7,0.3c0,0,0,0-0.1,0
		c-0.2,0-0.3-0.1-0.4-0.3c-0.1-0.2-0.1-0.5-0.2-0.8c0-0.3,0-0.7,0.1-1c0.2-0.1,0.5-0.2,0.7-0.4c0.2-0.2,0.5-0.4,0.7-0.6
		c0.2-0.2,0.4-0.5,0.6-0.7c0.2-0.3,0.3-0.5,0.4-0.7c0.1-0.2,0.1-0.5,0.1-0.7c0-0.2-0.1-0.4-0.3-0.5C38.1,92.9,37.8,92.8,37.6,92.8
		 M36.2,96.1c0.1-0.3,0.2-0.7,0.3-1.1c0.1-0.4,0.3-0.7,0.5-1c0.2-0.3,0.4-0.5,0.6-0.6c0.1,0,0.1-0.1,0.2-0.1c0.1,0,0.2,0.1,0.3,0.2
		c0.1,0.1,0.1,0.2,0,0.4c0,0.2-0.1,0.3-0.2,0.5c-0.1,0.2-0.2,0.4-0.3,0.5c-0.1,0.2-0.3,0.4-0.4,0.5c-0.2,0.2-0.3,0.3-0.5,0.4
		C36.5,96,36.3,96.1,36.2,96.1"/>
	<path class="st0" d="M40.1,92.8c-0.1,0-0.1,0-0.2,0.1c-0.1,0-0.1,0.1-0.1,0.2c-0.1,0.7-0.2,1.3-0.2,1.9c0,0.3-0.1,0.5-0.1,0.8
		c0,0.3,0,0.5-0.1,0.7c0,0.2,0,0.4-0.1,0.6c0,0.3-0.1,0.5-0.1,0.8c-0.1,0.5-0.1,1-0.2,1.5c0,0.1,0,0.1,0.1,0.2
		c0.1,0,0.1,0.1,0.2,0.1c0,0,0.1,0,0.1,0c0.1,0,0.1,0,0.2,0c0.1,0,0.1-0.1,0.2-0.1l0,0c0.1-0.3,0.1-0.7,0.2-1.2
		c0.1-0.5,0.2-0.9,0.4-1.4c0.1-0.5,0.3-1,0.5-1.4c0.2-0.5,0.4-0.9,0.6-1.2c0.2-0.4,0.4-0.6,0.6-0.8c0.1-0.1,0.3-0.2,0.4-0.2
		c0.1,0,0.1,0,0.2,0c0.2,0.1,0.4,0.2,0.4,0.5c0.1,0.2,0.1,0.5,0.1,0.8c0,0.3-0.1,0.7-0.1,1c-0.1,0.4-0.2,0.8-0.2,1.1
		c-0.1,0.4-0.2,0.7-0.2,1.1c-0.1,0.4-0.1,0.7-0.1,0.9c0,0.3,0.1,0.5,0.2,0.7c0.1,0.2,0.3,0.2,0.6,0.2h0c0.2,0,0.4-0.1,0.6-0.2
		c0.2-0.1,0.3-0.3,0.5-0.6c0.2-0.2,0.3-0.5,0.4-0.7c0-0.1,0.1-0.2,0.1-0.2c0-0.3,0-0.6,0-0.9c0-0.1,0-0.3,0-0.4c0,0.1,0,0.1-0.1,0.2
		c-0.1,0.3-0.2,0.5-0.3,0.8c-0.1,0.3-0.2,0.6-0.4,0.8c-0.1,0.2-0.3,0.5-0.4,0.6c-0.2,0.2-0.3,0.2-0.5,0.2c-0.1,0-0.2-0.1-0.3-0.3
		c0-0.2,0-0.4,0-0.7c0-0.3,0.1-0.6,0.2-1c0.1-0.4,0.2-0.7,0.2-1.1c0.1-0.4,0.1-0.8,0.2-1.1c0.1-0.4,0.1-0.7,0-1
		c0-0.3-0.1-0.6-0.2-0.8c-0.1-0.2-0.3-0.4-0.6-0.4c-0.1,0-0.2,0-0.3,0c-0.1,0-0.3,0-0.4,0.1c-0.2,0.1-0.4,0.2-0.6,0.4
		c-0.2,0.2-0.3,0.4-0.5,0.7c-0.1,0.3-0.3,0.5-0.4,0.8c-0.1,0.3-0.2,0.5-0.3,0.8c-0.1,0.2-0.2,0.5-0.2,0.6c0-0.5,0.1-1,0.2-1.6
		c0.1-0.5,0.2-1,0.2-1.6c0-0.1,0-0.2-0.1-0.2C40.3,92.8,40.3,92.8,40.1,92.8L40.1,92.8"/>
	<path class="st0" d="M46.2,90.1c-0.1,0-0.1,0-0.2,0c-0.1,0-0.1,0.1-0.2,0.1l-0.5,2.8l-0.7,0c-0.1,0-0.2,0.1-0.2,0.2
		c0,0.1,0,0.2,0.2,0.2l0.7,0c0,0.3-0.1,0.6-0.1,0.9c-0.1,0.4-0.1,0.8-0.2,1.2c0,0.3-0.1,0.6-0.1,0.9c0,0.1,0,0.3,0,0.4
		c0,0.3,0,0.6,0,0.9c0,0.1,0,0.2,0,0.3c0.1,0.4,0.2,0.7,0.3,0.9c0.1,0.3,0.4,0.4,0.6,0.5c0.1,0,0.2,0,0.3,0c0.2,0,0.3,0,0.4-0.1
		c0.2-0.1,0.4-0.3,0.6-0.5c0,0,0.1-0.1,0.1-0.1c-0.1-0.1-0.2-0.1-0.2-0.2c0,0-0.1-0.1-0.1-0.1c-0.1,0.2-0.3,0.3-0.4,0.4
		c-0.1,0.1-0.2,0.1-0.3,0.1c0,0-0.1,0-0.1,0c-0.1,0-0.2-0.2-0.3-0.4c-0.1-0.2-0.1-0.5-0.1-0.9c0-0.3,0-0.7,0-1.2
		c0-0.4,0.1-0.8,0.1-1.2c0-0.4,0.1-0.8,0.1-1.1c0-0.3,0.1-0.6,0.1-0.8l1.1,0.1l0.1,0l0.1-0.1l0-0.1c0,0-0.1-0.1-0.1-0.1l-1.1-0.1
		l0.4-2.7c0-0.1,0-0.1-0.1-0.2C46.4,90.2,46.3,90.1,46.2,90.1C46.2,90.1,46.2,90.1,46.2,90.1"/>
	<path class="st0" d="M49.5,92.3c0,0-0.1,0-0.1,0c-0.1,0-0.2,0.1-0.2,0.2l-2.2,5.8c0,0.1,0,0.1,0,0.2c0,0,0,0.1,0.1,0.1
		c0.1,0.1,0.1,0.1,0.2,0.2c0,0,0,0,0,0c0.1,0.1,0.2,0.1,0.3,0.1h0c0.1,0,0.1,0,0.2-0.1l2-5.7c0.1,0.1,0.2,0.3,0.3,0.6
		c0.1,0.3,0.2,0.6,0.3,0.9c0.1,0.3,0.2,0.7,0.3,1c0.1,0.4,0.1,0.7,0.1,1c-0.4,0.2-0.7,0.5-1,0.6c-0.3,0.2-0.6,0.4-0.8,0.5
		c-0.2,0.1-0.3,0.3-0.3,0.5c0,0.2,0,0.3,0,0.5c0.1,0.2,0.1,0.3,0.3,0.5c0.1,0.2,0.3,0.3,0.5,0.4c0.2,0.1,0.4,0.1,0.6,0.1
		c0,0,0,0,0,0c0.2,0,0.4-0.1,0.6-0.2c0.2-0.1,0.3-0.3,0.4-0.5c0.1-0.2,0.2-0.5,0.2-0.7c0-0.3,0.1-0.5,0.1-0.8c0-0.3,0-0.5,0-0.7
		c0.1-0.1,0.3-0.2,0.4-0.2c0.1-0.1,0.3-0.1,0.4-0.2c0.1-0.1,0.3-0.2,0.4-0.2c0.1-0.1,0.3-0.2,0.4-0.3c0.1-0.1,0.1-0.1,0.1-0.2
		c0-0.1,0-0.1-0.1-0.1l-0.1-0.1l-0.1,0.1c-0.2,0.2-0.5,0.3-0.7,0.5c-0.2,0.1-0.5,0.3-0.7,0.3c-0.1-0.8-0.3-1.6-0.5-2.2
		c-0.2-0.6-0.4-1.1-0.6-1.5c-0.1-0.1-0.1-0.2-0.2-0.3c-0.1-0.1-0.2-0.1-0.3-0.2C49.6,92.4,49.6,92.3,49.5,92.3 M49.9,99.4
		c-0.1,0-0.1,0-0.2,0c-0.2,0-0.3-0.1-0.5-0.3c-0.1-0.1-0.2-0.3-0.3-0.4c-0.1-0.2,0-0.3,0.1-0.4c0.1-0.1,0.1-0.2,0.3-0.3
		c0.1-0.1,0.3-0.2,0.4-0.3c0.2-0.1,0.3-0.2,0.5-0.3c0.2-0.1,0.3-0.2,0.5-0.3c0,0.1,0,0.3,0,0.5c0,0.2,0,0.4-0.1,0.6
		c0,0.2-0.1,0.4-0.1,0.6c-0.1,0.2-0.2,0.3-0.3,0.4C50.2,99.4,50.1,99.4,49.9,99.4"/>
	<path class="st0" d="M57.6,92.8c-0.1,0-0.2,0-0.3,0c-0.3,0.1-0.6,0.3-0.9,0.7c-0.3,0.4-0.5,0.8-0.7,1.4c-0.2,0.6-0.3,1.2-0.3,1.9
		c0,0.5,0,0.9,0,1.3c0,0.4,0.1,0.8,0.3,1c0.2,0.2,0.4,0.4,0.7,0.4h0c0.3,0,0.7-0.2,1.3-0.6c0.5-0.3,0.9-0.8,1.2-1.3
		c0.3-0.5,0.6-1,0.8-1.5c-0.1-0.2-0.1-0.3-0.2-0.5c0,0,0-0.1,0-0.1l0,0c-0.1,0.3-0.3,0.6-0.4,0.9c-0.1,0.3-0.3,0.5-0.4,0.8
		c-0.1,0.2-0.3,0.5-0.5,0.7c-0.2,0.2-0.4,0.4-0.7,0.6c-0.3,0.2-0.5,0.3-0.7,0.3c0,0,0,0-0.1,0c-0.2,0-0.3-0.1-0.4-0.3
		C56,98.4,56,98.2,56,97.8c0-0.3,0-0.7,0.1-1c0.2-0.1,0.5-0.2,0.7-0.4c0.2-0.2,0.5-0.4,0.7-0.6c0.2-0.2,0.4-0.5,0.6-0.7
		c0.2-0.3,0.3-0.5,0.4-0.7c0.1-0.2,0.1-0.5,0.1-0.7c0-0.2-0.1-0.4-0.3-0.5C58,92.9,57.8,92.8,57.6,92.8 M56.1,96.1
		c0.1-0.3,0.2-0.7,0.3-1.1c0.2-0.4,0.3-0.7,0.5-1c0.2-0.3,0.4-0.5,0.6-0.6c0.1,0,0.1-0.1,0.2-0.1c0.1,0,0.2,0.1,0.3,0.2
		c0.1,0.1,0.1,0.2,0,0.4c0,0.2-0.1,0.3-0.2,0.5c-0.1,0.2-0.2,0.4-0.3,0.5c-0.1,0.2-0.3,0.4-0.4,0.5c-0.2,0.2-0.3,0.3-0.5,0.4
		C56.4,96,56.3,96.1,56.1,96.1"/>
	<path class="st0" d="M59.5,92.7C59.5,92.7,59.5,92.7,59.5,92.7c-0.2,0-0.3,0-0.4,0.1c-0.1,0-0.1,0.1-0.2,0.2
		c0.1,0.6,0.2,1.1,0.2,1.5c0.1,0.4,0.1,0.7,0.2,1c0,0,0,0.1,0,0.1c0.1,0.2,0.1,0.4,0.2,0.5c0,0.1,0.1,0.2,0.1,0.3
		c0.1,0.2,0.2,0.5,0.4,0.7l-1.1,2.3C59,99.6,59,99.7,59,99.8c0,0.1,0.1,0.1,0.1,0.2l0.2,0.1h0c0.1,0,0.1,0,0.1-0.1l1.1-2.1
		c0.1,0.2,0.2,0.4,0.3,0.6c0.1,0.2,0.3,0.4,0.4,0.6c0.2,0.2,0.3,0.3,0.5,0.5c0.2,0.1,0.4,0.2,0.6,0.2h0c0.2,0,0.5-0.1,0.7-0.2
		c0.2-0.1,0.4-0.3,0.5-0.6c0.1-0.1,0.2-0.3,0.2-0.4l0.1-1.5c-0.1,0.4-0.2,0.8-0.4,1.1c-0.2,0.4-0.3,0.6-0.5,0.9
		c-0.2,0.2-0.4,0.3-0.6,0.3h0c-0.2,0-0.4-0.1-0.5-0.2c-0.2-0.2-0.3-0.3-0.5-0.5c-0.1-0.2-0.3-0.4-0.4-0.6c-0.1-0.2-0.2-0.4-0.3-0.6
		l1.9-4.2c0.1-0.1,0.1-0.1,0-0.2c0-0.1-0.1-0.1-0.1-0.1c0,0-0.1,0-0.1,0c0,0,0,0-0.1,0c-0.1,0-0.1,0.1-0.2,0.2l-1.6,3.6
		c-0.1-0.3-0.2-0.6-0.2-0.9c-0.1-0.3-0.1-0.6-0.2-0.9c0-0.3-0.1-0.6-0.1-0.9c0-0.3-0.1-0.6-0.1-0.9c0-0.1-0.1-0.1-0.2-0.2
		C59.7,92.8,59.6,92.7,59.5,92.7"/>
	<path class="st0" d="M66.7,93c0,0-0.1,0-0.1,0c-0.2,0-0.4,0.1-0.6,0.3c-0.2,0.1-0.3,0.3-0.5,0.5c-0.1,0.2-0.3,0.4-0.4,0.7
		c-0.1,0.2-0.2,0.5-0.3,0.7c-0.1,0.2-0.1,0.4-0.2,0.6l0.1-2.2c0-0.1,0-0.1-0.1-0.2c0,0-0.1-0.1-0.2-0.1c0,0,0,0-0.1,0
		c0,0-0.1,0-0.1,0c-0.1,0-0.1,0.1-0.2,0.2l-0.2,3.5l-0.1,1.5l-0.3,4.9c0,0.2,0.1,0.3,0.2,0.3c0.1,0,0.2-0.1,0.3-0.2l0.3-3.9
		c0.2,0.1,0.4,0.1,0.6,0.1c0.1,0,0.2,0,0.3,0c0.3-0.1,0.6-0.2,0.9-0.3c0.3-0.2,0.5-0.4,0.7-0.7c0.2-0.3,0.4-0.6,0.5-1
		c0.2,0,0.4-0.1,0.7-0.2c0.2-0.1,0.4-0.2,0.6-0.4c0.1-0.1,0.2-0.1,0.2-0.2c0-0.2,0-0.4,0.1-0.7c0,0-0.1,0.1-0.1,0.1
		c-0.1,0.1-0.2,0.3-0.4,0.4c-0.1,0.1-0.3,0.2-0.4,0.3C68,96.9,67.8,97,67.6,97c0-0.1,0.1-0.3,0.1-0.5c0-0.2,0.1-0.5,0.1-0.7
		c0-0.3,0.1-0.5,0.1-0.8c0-0.3,0-0.5,0-0.8c0-0.2-0.1-0.5-0.2-0.7c-0.1-0.2-0.2-0.3-0.4-0.4C67,93,66.9,93,66.7,93 M64.6,98
		c0-0.1,0-0.1,0-0.2c0-0.1,0-0.2,0.1-0.3c0-0.1,0-0.2,0.1-0.3c0-0.1,0-0.2,0.1-0.2c0-0.2,0.1-0.4,0.2-0.7c0.1-0.3,0.1-0.5,0.2-0.8
		c0.1-0.3,0.2-0.6,0.3-0.8c0.1-0.3,0.2-0.5,0.4-0.7c0.1-0.2,0.3-0.3,0.5-0.4c0.1-0.1,0.2-0.1,0.3-0.1c0.1,0,0.1,0,0.2,0
		c0.2,0.1,0.3,0.2,0.4,0.5c0.1,0.3,0.1,0.6,0.1,1c0,0.4,0,0.8-0.1,1.1c-0.1,0.4-0.1,0.7-0.3,1c-0.1,0-0.3,0.1-0.5,0.1
		c-0.2,0-0.4,0.1-0.7,0.1c-0.2,0.1-0.5,0.1-0.7,0.2C64.9,97.7,64.7,97.8,64.6,98 M65.1,99.1c-0.1,0-0.2,0-0.3,0
		c-0.2,0-0.3-0.1-0.4-0.1c0-0.2,0.1-0.4,0.3-0.5s0.3-0.3,0.6-0.4c0.2-0.1,0.5-0.2,0.8-0.3c0.3-0.1,0.5-0.1,0.8-0.1c0,0,0.1,0,0.1,0
		c-0.2,0.5-0.5,0.8-0.7,1c-0.3,0.2-0.5,0.3-0.7,0.4C65.3,99.1,65.2,99.1,65.1,99.1"/>
	<path class="st0" d="M71.1,92.8c-0.1,0-0.2,0-0.3,0c-0.3,0.1-0.6,0.3-0.9,0.7c-0.3,0.4-0.5,0.8-0.7,1.4c-0.1,0.3-0.2,0.7-0.3,1.1
		c0,0.2-0.1,0.4-0.1,0.7c0,0.1,0,0.1,0,0.2c0,0.5,0,0.9,0,1.3c0,0.4,0.1,0.8,0.3,1c0.2,0.2,0.4,0.4,0.7,0.4h0c0.3,0,0.7-0.2,1.3-0.6
		c0.5-0.3,0.9-0.8,1.2-1.3c0.1-0.2,0.2-0.3,0.3-0.5c0-0.3,0.1-0.5,0.1-0.8c0-0.2,0-0.3,0-0.5c-0.1,0.2-0.2,0.4-0.3,0.6
		c-0.1,0.3-0.3,0.5-0.4,0.8c-0.2,0.2-0.3,0.5-0.5,0.7c-0.2,0.2-0.4,0.4-0.7,0.6c-0.3,0.2-0.5,0.3-0.7,0.3c0,0,0,0-0.1,0
		c-0.2,0-0.3-0.1-0.4-0.3c-0.1-0.2-0.1-0.5-0.2-0.8c0-0.3,0-0.7,0.1-1c0.2-0.1,0.5-0.2,0.7-0.4c0.2-0.2,0.5-0.4,0.7-0.6
		c0.2-0.2,0.4-0.5,0.6-0.7c0.2-0.3,0.3-0.5,0.4-0.7c0.1-0.2,0.1-0.5,0.1-0.7c0-0.2-0.1-0.4-0.3-0.5C71.6,92.9,71.4,92.8,71.1,92.8
		 M69.7,96.1c0.1-0.3,0.2-0.7,0.3-1.1c0.2-0.4,0.3-0.7,0.5-1c0.2-0.3,0.4-0.5,0.6-0.6c0.1,0,0.1-0.1,0.2-0.1c0.1,0,0.2,0.1,0.3,0.2
		c0.1,0.1,0.1,0.2,0,0.4c0,0.2-0.1,0.3-0.2,0.5c-0.1,0.2-0.2,0.4-0.3,0.5c-0.1,0.2-0.3,0.4-0.4,0.5c-0.2,0.2-0.3,0.3-0.5,0.4
		C70,96,69.9,96.1,69.7,96.1"/>
	<path class="st0" d="M73.6,92.7c-0.1,0-0.2,0-0.2,0c-0.1,0-0.1,0.1-0.2,0.2c0,0.2-0.1,0.5-0.1,0.9c0,0.4-0.1,0.8-0.1,1.2
		c0,0.3-0.1,0.6-0.1,0.9c0,0.2,0,0.3,0,0.5c0,0.3-0.1,0.6-0.1,0.8c0,0.2,0,0.3,0,0.5c0,0.4-0.1,0.7-0.1,1c0,0.3,0,0.5-0.1,0.6
		c0,0.1,0,0.1,0.1,0.2l0.2,0.1c0.1,0,0.1,0,0.2-0.1c0.1,0,0.1-0.1,0.1-0.2c0-0.1,0.1-0.4,0.1-0.8c0.1-0.4,0.1-0.8,0.2-1.4
		c0.1-0.5,0.2-1.1,0.3-1.7c0.1-0.6,0.2-1.2,0.3-1.7c0.1,0.1,0.2,0.2,0.2,0.3c0.1,0.1,0.2,0.2,0.3,0.3c0.1,0.1,0.2,0.1,0.4,0.2
		c0.1,0,0.2,0.1,0.3,0.1c0,0,0.1,0,0.1,0c0,0.3-0.1,0.6-0.1,0.9c-0.1,0.3-0.1,0.7-0.2,1c-0.1,0.3-0.1,0.7-0.1,1c0,0.3,0,0.6,0,0.9
		c0,0.3,0.1,0.5,0.3,0.7c0.1,0.2,0.3,0.3,0.6,0.4c0.1,0,0.2,0,0.3,0c0.2,0,0.3,0,0.5-0.1c0.2-0.1,0.4-0.4,0.6-0.7
		c0.1-0.2,0.2-0.5,0.3-0.7c0-0.3-0.1-0.7,0-1.1c0,0,0,0,0,0c0,0.1,0,0.2-0.1,0.2c-0.1,0.4-0.3,0.7-0.4,1c-0.1,0.3-0.3,0.5-0.4,0.7
		c-0.1,0.2-0.3,0.2-0.4,0.2c0,0,0,0,0,0c-0.2,0-0.3-0.1-0.4-0.3c-0.1-0.2-0.2-0.4-0.2-0.6c0-0.3,0-0.5,0-0.9c0-0.3,0.1-0.6,0.1-1
		c0-0.3,0.1-0.7,0.2-1c0.1-0.3,0.1-0.7,0.1-1c0-0.2,0-0.3-0.1-0.3c0,0-0.1,0-0.2,0c0,0-0.1,0-0.1,0c0,0,0,0-0.1,0
		c-0.1,0-0.2,0-0.3,0c-0.1,0-0.3-0.1-0.4-0.2c-0.1-0.1-0.3-0.2-0.4-0.3c-0.1-0.1-0.2-0.3-0.3-0.5v0h0c0-0.1-0.1-0.1-0.2-0.2
		C73.9,92.8,73.8,92.7,73.6,92.7C73.7,92.7,73.7,92.7,73.6,92.7"/>
	<path class="st0" d="M78.8,90.1c-0.1,0-0.1,0-0.2,0c-0.1,0-0.1,0.1-0.2,0.1L78,93.1l-0.7,0c-0.1,0-0.2,0.1-0.2,0.2
		c0,0.1,0,0.2,0.2,0.2l0.7,0c0,0.3-0.1,0.6-0.1,0.9c-0.1,0.4-0.1,0.8-0.2,1.2c0,0.4-0.1,0.9-0.1,1.3v0c0,0.4,0,0.8,0,1.1
		c0,0,0,0.1,0,0.1c0.1,0.4,0.2,0.7,0.3,0.9c0.1,0.3,0.4,0.4,0.6,0.5c0.1,0,0.2,0,0.3,0c0.2,0,0.3,0,0.4-0.1c0.2-0.1,0.4-0.3,0.6-0.5
		c0,0,0.1-0.1,0.1-0.1c-0.1-0.1-0.2-0.1-0.2-0.2c0,0-0.1-0.1-0.1-0.1c-0.1,0.2-0.3,0.3-0.4,0.4c-0.1,0.1-0.2,0.1-0.3,0.1
		c0,0-0.1,0-0.1,0c-0.1,0-0.2-0.2-0.3-0.4c-0.1-0.2-0.1-0.5-0.1-0.9c0-0.3,0-0.7,0-1.2c0-0.4,0.1-0.8,0.1-1.2c0-0.4,0.1-0.8,0.1-1.1
		c0-0.3,0.1-0.6,0.1-0.8l1.1,0.1l0.1,0l0.1-0.1l0-0.1c0,0-0.1-0.1-0.1-0.1l-1.1-0.1l0.4-2.7c0-0.1,0-0.1-0.1-0.2
		C79.1,90.2,79,90.1,78.8,90.1C78.9,90.1,78.9,90.1,78.8,90.1"/>
	<path class="st0" d="M82.2,92.3c0,0-0.1,0-0.1,0c-0.1,0-0.2,0.1-0.2,0.2l-2.2,5.8c0,0.1,0,0.1,0,0.2c0,0,0,0.1,0.1,0.1
		c0.1,0.1,0.1,0.1,0.2,0.2c0,0,0,0,0,0C80,99,80.1,99,80.2,99h0c0.1,0,0.1,0,0.2-0.1l2-5.7c0.1,0.1,0.2,0.3,0.3,0.6
		c0.1,0.3,0.2,0.6,0.3,0.9c0.1,0.3,0.2,0.7,0.3,1c0.1,0.4,0.1,0.7,0.1,1c-0.4,0.2-0.7,0.5-1,0.6c-0.3,0.2-0.6,0.4-0.8,0.5
		c-0.2,0.1-0.3,0.3-0.3,0.5c0,0.2,0,0.3,0,0.5c0.1,0.2,0.1,0.3,0.3,0.5c0.1,0.2,0.3,0.3,0.5,0.4c0.2,0.1,0.4,0.1,0.6,0.1
		c0,0,0,0,0,0c0.2,0,0.4-0.1,0.6-0.2c0.2-0.1,0.3-0.3,0.4-0.5c0.1-0.2,0.2-0.5,0.2-0.7c0-0.3,0.1-0.5,0.1-0.8c0-0.3,0-0.5,0-0.7
		c0.1-0.1,0.3-0.2,0.4-0.2l0.4-0.2c0.1-0.1,0.3-0.2,0.4-0.2c0.1-0.1,0.3-0.2,0.4-0.3c0.1-0.1,0.1-0.1,0.1-0.2c0-0.1,0-0.1-0.1-0.1
		l-0.1-0.1l-0.1,0.1c-0.2,0.2-0.5,0.3-0.7,0.5c-0.2,0.1-0.5,0.3-0.7,0.3c-0.1-0.8-0.3-1.6-0.5-2.2c-0.2-0.6-0.4-1.1-0.6-1.5
		c-0.1-0.1-0.1-0.2-0.2-0.3c-0.1-0.1-0.2-0.1-0.3-0.2C82.3,92.4,82.2,92.3,82.2,92.3 M82.6,99.4c-0.1,0-0.1,0-0.2,0
		c-0.2,0-0.3-0.1-0.5-0.3c-0.1-0.1-0.2-0.3-0.3-0.4c-0.1-0.2,0-0.3,0.1-0.4c0.1-0.1,0.1-0.2,0.3-0.3c0.1-0.1,0.3-0.2,0.4-0.3
		c0.2-0.1,0.3-0.2,0.5-0.3c0.2-0.1,0.3-0.2,0.5-0.3c0,0.1,0,0.3,0,0.5c0,0.2,0,0.4-0.1,0.6c0,0.2-0.1,0.4-0.1,0.6
		c-0.1,0.2-0.2,0.3-0.3,0.4C82.9,99.4,82.7,99.4,82.6,99.4"/>
</g>
</svg>
