<?xml version="1.0" encoding="UTF-8"?>
<svg enable-background="new 0 0 87.9 45" version="1.1" viewBox="0 0 87.9 45" xml:space="preserve" xmlns="http://www.w3.org/2000/svg" xmlns:xlink="http://www.w3.org/1999/xlink">
<style type="text/css">
	.st0{clip-path:url(#ar);fill:#fff;}
	.st1{clip-path:url(#ap);fill:#fff;}
	.st2{clip-path:url(#am);fill:#fff;}
	.st3{clip-path:url(#ak);fill:#fff;}
	.st4{clip-path:url(#ai);fill:#fff;}
	.st5{clip-path:url(#ag);fill:#fff;}
	.st6{clip-path:url(#ae);fill:#fff;}
	.st7{clip-path:url(#ac);fill:#fff;}
	.st8{clip-path:url(#aa);fill:#fff;}
	.st9{clip-path:url(#y);fill:#fff;}
	.st10{clip-path:url(#w);fill:#fff;}
</style>
	<defs>
		<polyline id="an" points="110.1 119 -21.9 119 -21.9 -13.1 110.1 -13.1"/>
	</defs>
	<clipPath>
		<use xlink:href="#an"/>
	</clipPath>
	<defs>
		<polyline id="t" points="110.1 119 -21.9 119 -21.9 -13.1 110.1 -13.1"/>
	</defs>
	<clipPath>
		<use xlink:href="#t"/>
	</clipPath>
	<defs>
		<polyline id="i" points="110.1 119 -21.9 119 -21.9 -13.1 110.1 -13.1"/>
	</defs>
	<clipPath>
		<use xlink:href="#i"/>
	</clipPath>
	<defs>
		<polyline id="b" points="110.1 119 -21.9 119 -21.9 -13.1 110.1 -13.1"/>
	</defs>
	<clipPath>
		<use xlink:href="#b"/>
	</clipPath>
	<defs>
		<polyline id="a" points="110.1 119 -21.9 119 -21.9 -13.1 110.1 -13.1"/>
	</defs>
	<clipPath>
		<use xlink:href="#a"/>
	</clipPath>
	<defs>
		<polyline id="au" points="110.1 119 -21.9 119 -21.9 -13.1 110.1 -13.1"/>
	</defs>
	<clipPath>
		<use xlink:href="#au"/>
	</clipPath>
	<defs>
		<polyline id="at" points="110.1 119 -21.9 119 -21.9 -13.1 110.1 -13.1"/>
	</defs>
	<clipPath>
		<use xlink:href="#at"/>
	</clipPath>
	<defs>
		<polyline id="as" points="110.1 119 -21.9 119 -21.9 -13.1 110.1 -13.1"/>
	</defs>
	<clipPath id="ar">
		<use xlink:href="#as"/>
	</clipPath>
	<path class="st0" d="m43.7 41.2h2.4c6.2 0 12 0 15.6-0.7 4.8-0.8 5.4-2.3 5.4-3.4 0-5.9-11.1-11-23.4-11s-22.7 5-22.7 11c0 4 10.3 4 20.3 4l2.4 0.1zm2.4 1.9h-4.8c-11.9 0-22.2 0-22.2-5.9 0-7.2 10.8-12.8 24.6-12.8s25.3 5.6 25.3 12.8c0 4.1-5.2 4.9-6.9 5.2-3.8 0.7-9.7 0.7-16 0.7"/>
	<defs>
		<polyline id="aq" points="110.1 119 -21.9 119 -21.9 -13.1 110.1 -13.1"/>
	</defs>
	<clipPath id="ap">
		<use xlink:href="#aq"/>
	</clipPath>
	<path class="st1" d="m51.4 38c-0.2 0-0.4-0.1-0.6-0.2-1-1-2.2-2.3-2.4-4.6-0.2-2 0.1-4 1.5-5.4 0.4-0.4 1-0.4 1.3 0 0.4 0.4 0.3 0.9 0 1.3-1.7 2-0.9 5.4-0.3 5.8 0-2.1 0.7-4.1 2.7-6.7 0.3-0.4 0.9-0.5 1.3-0.2s0.5 0.9 0.2 1.3c-1.4 1.8-2.6 4.2-2.7 7.7 0 0.4-0.2 0.7-0.6 0.8-0.1 0.1-0.3 0.2-0.4 0.2"/>
	<defs>
		<polyline id="ao" points="110.1 119 -21.9 119 -21.9 -13.1 110.1 -13.1"/>
	</defs>
	<clipPath id="am">
		<use xlink:href="#ao"/>
	</clipPath>
	<path class="st2" d="m44.3 37.2c-0.2 0-0.4 0-0.6-0.2-1.1-0.9-2.4-2.1-2.9-4.3-0.4-2-0.3-4 1-5.5 0.3-0.4 0.9-0.5 1.3-0.1 0.4 0.3 0.4 0.9 0.1 1.3-1.5 2.2-0.3 5.5 0.3 5.8-0.3-2.1 0.3-4.2 2-6.9 0.3-0.4 0.9-0.6 1.3-0.3s0.6 0.9 0.3 1.3c-1.2 2-2.2 4.4-1.9 7.9 0 0.4-0.2 0.7-0.5 0.9-0.1 0-0.2 0.1-0.4 0.1"/>
	<defs>
		<polyline id="al" points="110.1 119 -21.9 119 -21.9 -13.1 110.1 -13.1"/>
	</defs>
	<clipPath id="ak">
		<use xlink:href="#al"/>
	</clipPath>
	<path class="st3" d="m38.3 37.7c-0.2 0.1-0.4 0.1-0.6 0-1.2-0.7-2.7-1.6-3.6-3.7-0.8-1.9-1-3.9-0.1-5.6 0.2-0.5 0.8-0.6 1.3-0.4s0.6 0.8 0.4 1.3c-1 2.4 0.7 5.5 1.3 5.7-0.7-2-0.5-4.1 0.7-7.2 0.2-0.5 0.7-0.7 1.2-0.5s0.7 0.7 0.5 1.2c-0.8 2.2-1.3 4.7-0.4 8.1 0.1 0.4 0 0.7-0.3 1-0.1 0-0.2 0.1-0.4 0.1"/>
	<defs>
		<polyline id="aj" points="110.1 119 -21.9 119 -21.9 -13.1 110.1 -13.1"/>
	</defs>
	<clipPath id="ai">
		<use xlink:href="#aj"/>
	</clipPath>
	<path class="st4" d="M15.6,36.3H2c-0.5,0-0.9,0.4-0.9,0.9s0.4,0.9,0.9,0.9h13.6c0.5,0,0.9-0.4,0.9-0.9S16.1,36.3,15.6,36.3"/>
	<defs>
		<polyline id="ah" points="110.1 119 -21.9 119 -21.9 -13.1 110.1 -13.1"/>
	</defs>
	<clipPath id="ag">
		<use xlink:href="#ah"/>
	</clipPath>
	<path class="st5" d="m86.2 36.3h-13.6c-0.5 0-0.9 0.4-0.9 0.9s0.4 0.9 0.9 0.9h13.6c0.5 0 0.9-0.4 0.9-0.9s-0.4-0.9-0.9-0.9"/>
	<defs>
		<polyline id="af" points="110.1 119 -21.9 119 -21.9 -13.1 110.1 -13.1"/>
	</defs>
	<clipPath id="ae">
		<use xlink:href="#af"/>
	</clipPath>
	<path class="st6" d="m44.1 1.3c-0.5 0-0.9 0.4-0.9 0.9v18.5c0 0.5 0.4 0.9 0.9 0.9s0.9-0.4 0.9-0.9v-18.5c0-0.4-0.4-0.9-0.9-0.9"/>
	<defs>
		<polyline id="ad" points="110.1 119 -21.9 119 -21.9 -13.1 110.1 -13.1"/>
	</defs>
	<clipPath id="ac">
		<use xlink:href="#ad"/>
	</clipPath>
	<path class="st7" d="m81.5 14.5c-0.2 0-0.5 0.1-0.7 0.3l-13 13.1c-0.4 0.4-0.4 1 0 1.3 0.2 0.2 0.4 0.3 0.7 0.3 0.2 0 0.5-0.1 0.7-0.3l13.1-13.1c0.4-0.4 0.4-1 0-1.3-0.3-0.2-0.5-0.3-0.8-0.3"/>
	<defs>
		<polyline id="ab" points="110.1 119 -21.9 119 -21.9 -13.1 110.1 -13.1"/>
	</defs>
	<clipPath id="aa">
		<use xlink:href="#ab"/>
	</clipPath>
	<path class="st8" d="m6.5 14.5c-0.2 0-0.5 0.1-0.7 0.3-0.4 0.4-0.4 1 0 1.3l13.1 13.1c0.2 0.2 0.4 0.3 0.7 0.3 0.2 0 0.5-0.1 0.7-0.3 0.4-0.4 0.4-1 0-1.3l-13.1-13.1c-0.2-0.2-0.5-0.3-0.7-0.3"/>
	<defs>
		<polyline id="z" points="110.1 119 -21.9 119 -21.9 -13.1 110.1 -13.1"/>
	</defs>
	<clipPath id="y">
		<use xlink:href="#z"/>
	</clipPath>
	<path class="st9" d="m25.1 9.5c-0.2 0-0.3 0-0.5 0.1-0.5 0.3-0.6 0.8-0.3 1.3l6.8 11.7c0.2 0.3 0.5 0.5 0.8 0.5 0.2 0 0.3 0 0.5-0.1 0.4-0.3 0.6-0.8 0.3-1.3l-6.8-11.7c-0.2-0.3-0.5-0.5-0.8-0.5"/>
	<defs>
		<polyline id="x" points="110.1 119 -21.9 119 -21.9 -13.1 110.1 -13.1"/>
	</defs>
	<clipPath id="w">
		<use xlink:href="#x"/>
	</clipPath>
	<path class="st10" d="m63 9.6c-0.3 0-0.6 0.2-0.8 0.5l-6.8 11.7c-0.3 0.5-0.1 1 0.3 1.3 0.1 0.1 0.3 0.1 0.5 0.1 0.3 0 0.6-0.2 0.8-0.5l6.8-11.7c0.3-0.5 0.1-1-0.3-1.3-0.2 0-0.3-0.1-0.5-0.1"/>
	<defs>
		<polyline id="v" points="110.1 119 -21.9 119 -21.9 -13.1 110.1 -13.1"/>
	</defs>
	<clipPath>
		<use xlink:href="#v"/>
	</clipPath>
	<defs>
		<polyline id="u" points="110.1 119 -21.9 119 -21.9 -13.1 110.1 -13.1"/>
	</defs>
	<clipPath>
		<use xlink:href="#u"/>
	</clipPath>
	<defs>
		<polyline id="s" points="110.1 119 -21.9 119 -21.9 -13.1 110.1 -13.1"/>
	</defs>
	<clipPath>
		<use xlink:href="#s"/>
	</clipPath>
	<defs>
		<polyline id="r" points="110.1 119 -21.9 119 -21.9 -13.1 110.1 -13.1"/>
	</defs>
	<clipPath>
		<use xlink:href="#r"/>
	</clipPath>
	<defs>
		<polyline id="q" points="110.1 119 -21.9 119 -21.9 -13.1 110.1 -13.1"/>
	</defs>
	<clipPath>
		<use xlink:href="#q"/>
	</clipPath>
	<defs>
		<polyline id="p" points="110.1 119 -21.9 119 -21.9 -13.1 110.1 -13.1"/>
	</defs>
	<clipPath>
		<use xlink:href="#p"/>
	</clipPath>
	<defs>
		<polyline id="o" points="110.1 119 -21.9 119 -21.9 -13.1 110.1 -13.1"/>
	</defs>
	<clipPath>
		<use xlink:href="#o"/>
	</clipPath>
	<defs>
		<polyline id="n" points="110.1 119 -21.9 119 -21.9 -13.1 110.1 -13.1"/>
	</defs>
	<clipPath>
		<use xlink:href="#n"/>
	</clipPath>
	<defs>
		<polyline id="m" points="110.1 119 -21.9 119 -21.9 -13.1 110.1 -13.1"/>
	</defs>
	<clipPath>
		<use xlink:href="#m"/>
	</clipPath>
	<defs>
		<polyline id="l" points="110.1 119 -21.9 119 -21.9 -13.1 110.1 -13.1"/>
	</defs>
	<clipPath>
		<use xlink:href="#l"/>
	</clipPath>
	<defs>
		<polyline id="k" points="110.1 119 -21.9 119 -21.9 -13.1 110.1 -13.1"/>
	</defs>
	<clipPath>
		<use xlink:href="#k"/>
	</clipPath>
	<defs>
		<polyline id="j" points="110.1 119 -21.9 119 -21.9 -13.1 110.1 -13.1"/>
	</defs>
	<clipPath>
		<use xlink:href="#j"/>
	</clipPath>
	<defs>
		<polyline id="h" points="110.1 119 -21.9 119 -21.9 -13.1 110.1 -13.1"/>
	</defs>
	<clipPath>
		<use xlink:href="#h"/>
	</clipPath>
	<defs>
		<polyline id="g" points="110.1 119 -21.9 119 -21.9 -13.1 110.1 -13.1"/>
	</defs>
	<clipPath>
		<use xlink:href="#g"/>
	</clipPath>
	<defs>
		<polyline id="f" points="110.1 119 -21.9 119 -21.9 -13.1 110.1 -13.1"/>
	</defs>
	<clipPath>
		<use xlink:href="#f"/>
	</clipPath>
	<defs>
		<polyline id="e" points="110.1 119 -21.9 119 -21.9 -13.1 110.1 -13.1"/>
	</defs>
	<clipPath>
		<use xlink:href="#e"/>
	</clipPath>
	<defs>
		<polyline id="d" points="110.1 119 -21.9 119 -21.9 -13.1 110.1 -13.1"/>
	</defs>
	<clipPath>
		<use xlink:href="#d"/>
	</clipPath>
	<defs>
		<polyline id="c" points="110.1 119 -21.9 119 -21.9 -13.1 110.1 -13.1"/>
	</defs>
	<clipPath>
		<use xlink:href="#c"/>
	</clipPath>
</svg>
