<svg version="1.1" xmlns="http://www.w3.org/2000/svg" viewBox="0 0 88.8 105.5">
<path class="logo__text" fill="#fff" d="m9.2 64c1 0 1.8-0.2 2.3-0.7 0.6-0.5 0.8-1.3 0.8-2.3v-0.4c0-1.1-0.3-1.8-0.8-2.3-0.6-0.4-1.3-0.7-2.3-0.7h-3.4v6.4h3.4zm-3.4-7.9h3.1c1 0 1.8-0.2 2.3-0.6s0.7-1.1 0.7-2c0-0.4-0.1-0.8-0.2-1.1-0.2-0.3-0.4-0.5-0.6-0.7-0.3-0.2-0.6-0.3-1-0.4s-0.8-0.1-1.2-0.1h-3v4.9zm-2.1-6c0-0.2 0.1-0.4 0.3-0.5s0.4-0.2 0.6-0.2h4.3c0.7 0 1.3 0 1.9 0.2 0.6 0.1 1.2 0.3 1.6 0.6 0.5 0.3 0.8 0.7 1.1 1.2s0.4 1.1 0.4 1.9c0 0.9-0.2 1.7-0.6 2.3s-0.9 1.1-1.5 1.3c0.4 0.1 0.7 0.3 1 0.5s0.6 0.4 0.8 0.7 0.4 0.7 0.5 1.1 0.2 0.9 0.2 1.5v0.3c0 0.8-0.1 1.6-0.4 2.2s-0.6 1.1-1 1.4c-0.4 0.4-1 0.6-1.6 0.8s-1.2 0.2-1.9 0.2h-4.8c-0.3 0-0.5-0.1-0.7-0.2s-0.3-0.3-0.3-0.4v-14.9z"/>
<path class="logo__text" fill="#fff" d="m25.8 54.3c0-1.1-0.3-1.9-0.9-2.4s-1.4-0.8-2.4-0.8-1.8 0.3-2.4 0.8-0.9 1.3-0.9 2.4v6.7c0 1.1 0.3 1.9 0.9 2.4s1.4 0.8 2.4 0.8 1.8-0.3 2.4-0.8 0.9-1.3 0.9-2.4v-6.7zm-3.3 11.5c-0.7 0-1.5-0.1-2.1-0.3-0.7-0.2-1.2-0.4-1.7-0.8s-0.9-0.9-1.1-1.5c-0.3-0.6-0.4-1.4-0.4-2.3v-6.7c0-0.9 0.1-1.6 0.4-2.3 0.3-0.6 0.7-1.1 1.1-1.5 0.5-0.4 1.1-0.7 1.7-0.8 0.7-0.2 1.4-0.3 2.1-0.3s1.4 0.1 2.1 0.3 1.2 0.4 1.7 0.8 0.9 0.9 1.1 1.5c0.3 0.6 0.4 1.4 0.4 2.3v6.8c0 0.9-0.1 1.6-0.4 2.3-0.3 0.6-0.7 1.1-1.1 1.5-0.5 0.4-1.1 0.7-1.7 0.8-0.7 0.1-1.4 0.2-2.1 0.2"/>
<path class="logo__text" fill="#fff" d="m38.6 59.6c-0.1 0.2-0.2 0.3-0.4 0.4-0.1 0.1-0.3 0.1-0.4 0.1s-0.3 0-0.4-0.1-0.3-0.2-0.4-0.4l-3.7-6.4v11.8c0 0.2-0.1 0.4-0.3 0.5s-0.5 0.2-0.7 0.2c-0.3 0-0.5-0.1-0.7-0.2s-0.3-0.3-0.3-0.5v-14.7c0-0.3 0.1-0.6 0.3-0.7s0.5-0.2 0.7-0.2c0.4 0 0.7 0.1 0.9 0.3 0.3 0.2 0.5 0.5 0.7 0.9l3.9 6.7 3.9-6.7c0.2-0.4 0.5-0.7 0.7-0.9s0.6-0.3 0.9-0.3 0.5 0.1 0.7 0.2 0.3 0.4 0.3 0.7v14.7c0 0.2-0.1 0.4-0.3 0.5s-0.5 0.2-0.7 0.2c-0.3 0-0.5-0.1-0.7-0.2s-0.3-0.3-0.3-0.5v-11.7l-3.7 6.3z"/>
<path class="logo__text" fill="#fff" d="m55.1 51.1v12.9h3.3c1 0 1.8-0.3 2.4-0.8s0.9-1.3 0.9-2.4v-6.6c0-1.1-0.3-1.9-0.9-2.4s-1.4-0.8-2.4-0.8h-3.3zm3.3-1.7c0.7 0 1.4 0.1 2.1 0.3s1.2 0.4 1.7 0.8 0.9 0.9 1.1 1.5c0.3 0.6 0.4 1.4 0.4 2.3v6.6c0 0.9-0.1 1.6-0.4 2.3-0.3 0.6-0.7 1.1-1.1 1.5-0.5 0.4-1.1 0.7-1.7 0.8-0.7 0.2-1.4 0.3-2.1 0.3h-4.4c-0.3 0-0.5-0.1-0.7-0.2-0.2-0.3-0.3-0.4-0.3-0.6v-14.9c0-0.2 0.1-0.3 0.3-0.4s0.4-0.2 0.7-0.2h4.4z"/>
<path class="logo__text" fill="#fff" d="m67.1 50.1c0-0.2 0.1-0.4 0.3-0.5s0.5-0.2 0.7-0.2c0.3 0 0.5 0.1 0.7 0.2s0.3 0.3 0.3 0.5v14.9c0 0.2-0.1 0.4-0.3 0.5s-0.5 0.2-0.7 0.2c-0.3 0-0.5-0.1-0.7-0.2s-0.3-0.3-0.3-0.5v-14.9z"/>
<path class="logo__text" fill="#fff" d="m80.6 60.4l-2.7-8.4-2.9 8.4h5.6zm-7.9 5.3c-0.3 0-0.6-0.1-0.8-0.2-0.3-0.1-0.4-0.3-0.4-0.6v-0.2l5.1-14.8c0.1-0.2 0.2-0.4 0.5-0.5s0.5-0.2 0.8-0.2 0.5 0.1 0.8 0.2c0.2 0.1 0.4 0.3 0.5 0.5l5.1 14.8v0.1 0.1c0 0.2-0.1 0.4-0.4 0.6s-0.6 0.2-0.9 0.2c-0.2 0-0.3 0-0.5-0.1l-0.3-0.3-1.1-3.3h-6.6l-1.1 3.3c0 0.2-0.3 0.4-0.7 0.4"/>
<path class="logo__text" fill="#fff" d="m5.7 69.9v6.4h3.3c1 0 1.8-0.3 2.3-0.8 0.6-0.5 0.8-1.3 0.8-2.3v-0.2c0-1-0.3-1.8-0.8-2.3-0.6-0.5-1.3-0.7-2.3-0.7h-3.3zm-2.1-1c0-0.2 0.1-0.3 0.2-0.4s0.3-0.2 0.6-0.2h4.6c0.7 0 1.4 0.1 2 0.2 0.6 0.2 1.2 0.4 1.6 0.8 0.5 0.4 0.8 0.8 1.1 1.4s0.4 1.3 0.4 2.2v0.2c0 0.8-0.1 1.6-0.4 2.1-0.3 0.6-0.6 1.1-1.1 1.4-0.5 0.4-1 0.6-1.7 0.8-0.6 0.2-1.3 0.3-2 0.3h-3.2v5.6c0 0.2-0.1 0.4-0.3 0.5-0.3 0.1-0.5 0.2-0.8 0.2s-0.5-0.1-0.7-0.2-0.3-0.3-0.3-0.5v-14.4z"/>
<path class="logo__text" fill="#fff" d="m23.2 78.9l-2.7-8.1-2.7 8.1h5.4zm-7.7 5.1c-0.3 0-0.5-0.1-0.8-0.2s-0.4-0.3-0.4-0.5v-0.2l4.9-14.3c0.1-0.2 0.2-0.4 0.5-0.5 0.2-0.1 0.5-0.2 0.8-0.2s0.5 0.1 0.8 0.2c0.2 0.1 0.4 0.3 0.5 0.5l4.9 14.3v0.1 0.1c0 0.2-0.1 0.4-0.4 0.5s-0.6 0.2-0.8 0.2-0.3 0-0.5-0.1l-0.3-0.3-1.1-3.2h-6.3l-1.1 3.2c0 0.3-0.3 0.4-0.7 0.4"/>
<path class="logo__text" fill="#fff" d="m30.9 69.9v12.4h3.1c1 0 1.8-0.2 2.3-0.7 0.6-0.5 0.8-1.3 0.8-2.3v-6.3c0-1-0.3-1.8-0.8-2.3-0.6-0.5-1.3-0.7-2.3-0.7h-3.1zm3.1-1.6c0.7 0 1.4 0.1 2 0.2 0.6 0.2 1.2 0.4 1.7 0.8s0.8 0.9 1.1 1.4c0.3 0.6 0.4 1.3 0.4 2.2v6.3c0 0.9-0.1 1.6-0.4 2.2s-0.6 1.1-1.1 1.4c-0.5 0.4-1 0.6-1.7 0.8-0.6 0.2-1.3 0.2-2 0.2h-4.3c-0.3 0-0.5-0.1-0.7-0.2s-0.3-0.3-0.3-0.4v-14.3c0-0.2 0.1-0.3 0.3-0.4s0.4-0.2 0.7-0.2h4.3z"/>
<path class="logo__text" fill="#fff" d="m50.1 78.9l-2.7-8.1-2.7 8.1h5.4zm-7.7 5.1c-0.3 0-0.5-0.1-0.8-0.2s-0.4-0.3-0.4-0.5v-0.2l4.9-14.3c0.1-0.2 0.2-0.4 0.5-0.5 0.2-0.1 0.5-0.2 0.8-0.2s0.5 0.1 0.8 0.2 0.4 0.3 0.5 0.5l4.9 14.3v0.1 0.1c0 0.2-0.1 0.4-0.4 0.5-0.3 0.2-0.6 0.2-0.8 0.2s-0.3 0-0.5-0.1l-0.3-0.3-1.1-3.2h-6.3l-1.1 3.2c0 0.3-0.3 0.4-0.7 0.4"/>
<path class="logo__text" fill="#fff" d="m57.8 69.9v5.6h3.1c1 0 1.8-0.2 2.4-0.6s0.9-1.2 0.9-2.2-0.3-1.7-0.9-2.1-1.4-0.6-2.4-0.6h-3.1zm-2.1-1c0-0.2 0.1-0.3 0.2-0.4s0.3-0.2 0.5-0.2h4.4c0.7 0 1.4 0.1 2.1 0.2s1.2 0.4 1.7 0.7 0.9 0.8 1.2 1.3c0.3 0.6 0.4 1.2 0.4 2.1 0 0.7-0.1 1.2-0.3 1.7s-0.4 0.9-0.8 1.2-0.7 0.6-1.1 0.8-0.9 0.4-1.4 0.4l3.6 6c0.1 0.1 0.1 0.2 0.1 0.3 0 0.2-0.1 0.5-0.4 0.6-0.3 0.4-0.5 0.4-0.8 0.4-0.2 0-0.4-0.1-0.5-0.2s-0.3-0.3-0.4-0.5l-3.7-6.3h-2.8v6.3c0 0.2-0.1 0.4-0.3 0.5s-0.4 0.2-0.7 0.2-0.5-0.1-0.7-0.2-0.3-0.3-0.3-0.5v-14.4z"/>
<path class="logo__text" fill="#fff" d="m68.8 68.9c0-0.2 0.1-0.4 0.3-0.5s0.4-0.1 0.7-0.1 0.5 0 0.7 0.1 0.3 0.3 0.3 0.5v14.4c0 0.2-0.1 0.4-0.3 0.5s-0.4 0.2-0.7 0.2-0.5-0.1-0.7-0.2-0.3-0.3-0.3-0.5v-14.4z"/>
<path class="logo__text" fill="#fff" d="m81.8 78.9l-2.7-8.1-2.7 8.1h5.4zm-7.6 5.1c-0.3 0-0.5-0.1-0.8-0.2s-0.4-0.3-0.4-0.5v-0.2l4.9-14.3c0.1-0.2 0.2-0.4 0.5-0.5 0.2-0.1 0.5-0.2 0.8-0.2s0.5 0.1 0.8 0.2 0.4 0.3 0.5 0.5l4.9 14.3v0.1 0.1c0 0.2-0.1 0.4-0.4 0.5-0.3 0.2-0.6 0.2-0.8 0.2s-0.3 0-0.5-0.1l-0.3-0.3-1.1-3.2h-6.3l-1.1 3.2c-0.1 0.3-0.3 0.4-0.7 0.4"/>
<path class="logo__bread" fill="#fff" d="m44.1 42.2h2.4c6.2 0 12 0 15.6-0.7 4.8-0.8 5.4-2.3 5.4-3.4 0-5.9-11.1-11-23.4-11s-22.7 5-22.7 11c0 4 10.3 4 20.3 4l2.4 0.1zm2.4 1.9h-4.8c-11.9 0-22.2 0-22.2-5.9 0-7.2 10.8-12.8 24.6-12.8s25.3 5.6 25.3 12.8c0 4.1-5.2 4.9-6.9 5.2-3.8 0.7-9.7 0.7-16 0.7"/>
<path class="logo__bread" fill="#fff" d="m51.8 39c-0.2 0-0.4-0.1-0.6-0.2-1-1-2.2-2.3-2.4-4.6-0.2-2 0.1-4 1.5-5.4 0.4-0.4 1-0.4 1.3 0 0.4 0.4 0.3 0.9 0 1.3-1.7 2-0.9 5.4-0.3 5.8 0-2.1 0.7-4.1 2.7-6.7 0.3-0.4 0.9-0.5 1.3-0.2s0.5 0.9 0.2 1.3c-1.4 1.8-2.6 4.2-2.7 7.7 0 0.4-0.2 0.7-0.6 0.8-0.1 0.1-0.3 0.2-0.4 0.2"/>
<path class="logo__bread" fill="#fff" d="m44.7 38.2c-0.2 0-0.4 0-0.6-0.2-1.1-0.9-2.4-2.1-2.9-4.3-0.4-2-0.3-4 1-5.5 0.3-0.4 0.9-0.5 1.3-0.1 0.4 0.3 0.4 0.9 0.1 1.3-1.5 2.2-0.3 5.5 0.3 5.8-0.3-2.1 0.3-4.2 2-6.9 0.3-0.4 0.9-0.6 1.3-0.3s0.6 0.9 0.3 1.3c-1.2 2-2.2 4.4-1.9 7.9 0 0.4-0.2 0.7-0.5 0.9-0.1 0-0.2 0.1-0.4 0.1"/>
<path class="logo__bread" fill="#fff" d="m38.7 38.7c-0.2 0.1-0.4 0.1-0.6 0-1.2-0.7-2.7-1.6-3.6-3.7-0.8-1.9-1-3.9-0.1-5.6 0.2-0.5 0.8-0.6 1.3-0.4s0.6 0.8 0.4 1.3c-1 2.4 0.7 5.5 1.3 5.7-0.7-2-0.5-4.1 0.7-7.2 0.2-0.5 0.7-0.7 1.2-0.5s0.7 0.7 0.5 1.2c-0.8 2.2-1.3 4.7-0.4 8.1 0.1 0.4 0 0.7-0.3 1-0.1 0-0.2 0.1-0.4 0.1"/>
<path class="logo__bread" fill="#fff" d="m16 37.3h-13.6c-0.5 0-0.9 0.4-0.9 0.9s0.4 0.9 0.9 0.9h13.6c0.5 0 0.9-0.4 0.9-0.9s-0.4-0.9-0.9-0.9"/>
<path class="logo__bread" fill="#fff" d="m86.6 37.3h-13.6c-0.5 0-0.9 0.4-0.9 0.9s0.4 0.9 0.9 0.9h13.6c0.5 0 0.9-0.4 0.9-0.9s-0.4-0.9-0.9-0.9"/>
<path class="logo__bread" fill="#fff" d="m44.5 2.3c-0.5 0-0.9 0.4-0.9 0.9v18.5c0 0.5 0.4 0.9 0.9 0.9s0.9-0.4 0.9-0.9v-18.5c0-0.4-0.4-0.9-0.9-0.9"/>
<path class="logo__bread" fill="#fff" d="m81.9 15.5c-0.2 0-0.5 0.1-0.7 0.3l-13 13.1c-0.4 0.4-0.4 1 0 1.3 0.2 0.2 0.4 0.3 0.7 0.3 0.2 0 0.5-0.1 0.7-0.3l13.1-13.1c0.4-0.4 0.4-1 0-1.3-0.3-0.2-0.5-0.3-0.8-0.3"/>
<path class="logo__bread" fill="#fff" d="m6.9 15.5c-0.2 0-0.5 0.1-0.7 0.3-0.4 0.4-0.4 1 0 1.3l13.1 13.1c0.2 0.2 0.4 0.3 0.7 0.3 0.2 0 0.5-0.1 0.7-0.3 0.4-0.4 0.4-1 0-1.3l-13.1-13.1c-0.2-0.2-0.5-0.3-0.7-0.3"/>
<path class="logo__bread" fill="#fff" d="m25.5 10.5c-0.2 0-0.3 0-0.5 0.1-0.5 0.3-0.6 0.8-0.3 1.3l6.8 11.7c0.2 0.3 0.5 0.5 0.8 0.5 0.2 0 0.3 0 0.5-0.1 0.4-0.3 0.6-0.8 0.3-1.3l-6.8-11.7c-0.2-0.3-0.5-0.5-0.8-0.5"/>
<path class="logo__bread" fill="#fff" d="m63.4 10.6c-0.3 0-0.6 0.2-0.8 0.5l-6.8 11.7c-0.3 0.5-0.1 1 0.3 1.3 0.1 0.1 0.3 0.1 0.5 0.1 0.3 0 0.6-0.2 0.8-0.5l6.8-11.7c0.3-0.5 0.1-1-0.3-1.3-0.2 0-0.3-0.1-0.5-0.1"/>
<path class="logo__text" fill="#fff" d="m5.6 91c-0.2 0-0.3 0.1-0.4 0.2s-0.1 0.2-0.1 0.3 0 0.2 0.1 0.3 0.2 0.1 0.3 0.2h0.1c0.1 0 0.1 0 0.2-0.1s0.1-0.2 0.2-0.3v-0.4c-0.2-0.1-0.3-0.2-0.4-0.2m-0.4 1.9c-0.1 0-0.1 0-0.2 0.1-0.1 0-0.2 0.1-0.2 0.3 0 0.1-0.1 0.3-0.1 0.5s-0.1 0.4-0.2 0.6-0.1 0.5-0.2 0.8-0.1 0.5-0.2 0.8c0 0.3-0.1 0.7-0.1 1.2v1.1c0.1 0.4 0.2 0.7 0.4 0.9s0.4 0.4 0.8 0.5h0.2c0.2 0 0.3 0 0.5-0.1 0.1-0.2 0.3-0.4 0.5-0.6s0.3-0.5 0.5-0.8c0-0.1 0.1-0.1 0.1-0.2v-0.2c0-0.4 0-0.8 0.1-1.3-0.1 0.2-0.2 0.4-0.2 0.5-0.1 0.3-0.2 0.6-0.4 0.8-0.1 0.3-0.3 0.5-0.4 0.7s-0.3 0.3-0.4 0.5c-0.1 0.1-0.2 0.1-0.3 0.1h-0.1c-0.2-0.1-0.3-0.2-0.4-0.4s-0.1-0.4-0.1-0.7v-0.9c0-0.3 0.1-0.7 0.1-1 0.1-0.3 0.1-0.6 0.2-0.9s0.1-0.6 0.2-0.8c0.1-0.3 0.1-0.5 0.2-0.7 0-0.2 0.1-0.4 0.1-0.5s0-0.2-0.1-0.2c-0.1-0.1-0.2-0.1-0.3-0.1m2.6 2.6v0.4c0-0.1 0-0.1 0.1-0.1 0-0.1 0-0.2-0.1-0.3z"/>
<path class="logo__text" fill="#fff" d="m7.9 92.8c-0.1 0-0.1 0-0.2 0.1-0.1 0-0.1 0.1-0.1 0.2-0.1 0.7-0.2 1.3-0.2 1.9-0.1 0.5-0.1 1-0.2 1.5v0.1c-0.2 0.4-0.2 0.8-0.3 1.2v0.2c0 0.4-0.1 0.8-0.2 1.3 0 0.1 0 0.1 0.1 0.2 0.1 0 0.1 0.1 0.2 0.1h0.1 0.2c0.1 0 0.1-0.1 0.2-0.1 0.1-0.3 0.1-0.7 0.2-1.2s0.2-0.9 0.4-1.4c0.1-0.5 0.3-1 0.5-1.4 0.2-0.5 0.4-0.9 0.6-1.2 0.2-0.4 0.4-0.6 0.6-0.8 0.1-0.1 0.3-0.2 0.4-0.2h0.2c0.2 0.1 0.4 0.2 0.4 0.5 0.1 0.2 0.1 0.5 0.1 0.8s-0.1 0.7-0.1 1c-0.1 0.4-0.2 0.8-0.2 1.1-0.1 0.4-0.2 0.7-0.2 1.1-0.1 0.4-0.1 0.7-0.1 0.9 0 0.3 0.1 0.5 0.2 0.7s0.3 0.2 0.6 0.2c0.2 0 0.4-0.1 0.6-0.2s0.3-0.3 0.5-0.6 0.3-0.5 0.4-0.7c0 0 0-0.1 0.1-0.1v-0.1-0.7c0-0.2 0-0.3 0.1-0.5v0.1c-0.1 0.3-0.2 0.5-0.3 0.8s-0.2 0.6-0.4 0.8c-0.1 0.2-0.3 0.5-0.4 0.6-0.2 0.2-0.3 0.2-0.5 0.2-0.1 0-0.2-0.1-0.3-0.3v-0.7c0-0.3 0.1-0.6 0.2-1s0.2-0.7 0.2-1.1c0.1-0.4 0.1-0.8 0.2-1.1 0.1-0.4 0.1-0.7 0-1 0-0.3-0.1-0.6-0.2-0.8s-0.3-0.4-0.6-0.4h-0.3c-0.1 0-0.3 0-0.4 0.1-0.2 0.1-0.4 0.2-0.6 0.4-0.4 0.2-0.5 0.4-0.7 0.7-0.1 0.3-0.3 0.5-0.4 0.8-0.1 0.2-0.2 0.5-0.3 0.7s-0.2 0.5-0.2 0.6v-0.2-0.4c0-0.3 0.1-0.6 0.1-1 0.1-0.5 0.2-1 0.2-1.6 0-0.1 0-0.2-0.1-0.2 0 0.1 0 0.1-0.1 0.1"/>
<path class="logo__text" fill="#fff" d="m17.4 92.8s-0.1 0 0 0c-0.2 0-0.2 0.1-0.3 0.1l-0.1 0.2c-0.3-0.1-0.6-0.2-0.9-0.2-0.2 0-0.3 0-0.5 0.1-0.5 0.1-1 0.4-1.4 0.7-0.4 0.4-0.8 0.9-1.1 1.5-0.2 0.4-0.4 0.9-0.5 1.5 0 0.2 0 0.3-0.1 0.5v0.7 0.1c0 0.2 0.1 0.5 0.2 0.7 0.1 0.3 0.2 0.5 0.4 0.7s0.4 0.3 0.6 0.4h0.1c0.2 0 0.4-0.1 0.6-0.2 0.2-0.2 0.5-0.4 0.7-0.6 0.2-0.3 0.4-0.5 0.6-0.8s0.3-0.5 0.3-0.6c-0.1 0.6-0.2 1.3-0.2 1.9-0.2 0.3-0.3 0.5-0.5 0.9-0.2 0.3-0.3 0.7-0.5 1-0.1 0.3-0.2 0.7-0.3 1 0 0.3 0 0.6 0.1 0.9 0.1 0.2 0.2 0.3 0.3 0.4s0.2 0.1 0.4 0.1c0.1 0 0.3 0 0.4-0.1l0.3-0.3c0.1-0.2 0.2-0.4 0.2-0.7 0-0.2 0.1-0.5 0.1-0.7v-0.7-0.7-0.4-0.4l0.6-0.9c0.2-0.3 0.4-0.5 0.6-0.8s0.4-0.5 0.7-0.8l0.1-0.1v-0.3c0-0.2 0-0.4 0.1-0.6-0.2 0.3-0.4 0.5-0.5 0.7-0.2 0.2-0.4 0.5-0.5 0.7-0.2 0.2-0.3 0.4-0.5 0.6s-0.3 0.4-0.5 0.6c0-0.4 0.1-0.9 0.2-1.3 0.1-0.5 0.2-1 0.3-1.4 0.1-0.5 0.3-0.9 0.4-1.4 0.1-0.4 0.3-0.8 0.4-1.2 0-0.1-0.1-0.2-0.1-0.2l-0.2-0.6m-3.6 6.4c-0.2 0-0.3-0.1-0.3-0.2-0.1-0.2-0.1-0.4-0.2-0.6v-0.7-0.5c0.1-0.6 0.2-1.2 0.4-1.6s0.4-0.8 0.7-1.1 0.5-0.5 0.8-0.7 0.5-0.3 0.7-0.3 0.3-0.1 0.4-0.1h0.1c0.2 0 0.3 0.1 0.3 0.1-0.1 0.3-0.1 0.6-0.2 0.8 0 0.2-0.1 0.3-0.1 0.4v0.1 0.1l-0.3 1.2c-0.2 0.4-0.4 0.8-0.6 1.1-0.2 0.4-0.4 0.7-0.7 1-0.2 0.3-0.4 0.5-0.6 0.7-0.1 0.2-0.3 0.3-0.4 0.3m1.4 3.8c-0.1 0-0.1 0-0.2-0.1s-0.1-0.3-0.1-0.5c0-0.1 0-0.3 0.1-0.5 0-0.2 0.1-0.4 0.1-0.5 0.1-0.2 0.1-0.4 0.2-0.5 0.1-0.2 0.2-0.3 0.3-0.5v0.9 0.6c0 0.2 0 0.4-0.1 0.5 0 0.2-0.1 0.3-0.1 0.4s-0.1 0.2-0.2 0.2c0.1 0 0 0 0 0"/>
<path class="logo__text" fill="#fff" d="m19.1 92.7h-0.2c-0.1 0-0.1 0.1-0.2 0.2 0 0.2-0.1 0.5-0.1 0.9s-0.1 0.8-0.1 1.2c0 0.2 0 0.5-0.1 0.7 0 0.2 0 0.4-0.1 0.6v0.3c0 0.3-0.1 0.7-0.1 1 0 0.4-0.1 0.7-0.1 1s0 0.5-0.1 0.6c0 0.1 0 0.1 0.1 0.2l0.2 0.1 0.2-0.1c0.1 0 0.1-0.1 0.1-0.2s0.1-0.4 0.1-0.8c0.1-0.4 0.1-0.8 0.2-1.4 0.1-0.5 0.2-1.1 0.3-1.7s0.2-1.2 0.3-1.7c0.1 0.1 0.2 0.2 0.2 0.3l0.3 0.3c0.1 0.1 0.2 0.1 0.4 0.2 0.1 0 0.2 0.1 0.3 0.1h0.1c0 0.3-0.1 0.6-0.1 0.9-0.1 0.3-0.1 0.7-0.2 1s-0.1 0.7-0.1 1v0.9c0 0.3 0.1 0.5 0.3 0.7 0.1 0.2 0.3 0.3 0.6 0.4h0.3c0.2 0 0.3 0 0.5-0.1s0.4-0.4 0.6-0.7c0.1-0.1 0.2-0.3 0.2-0.5v-0.1-0.9l-0.3 0.9c-0.1 0.3-0.3 0.5-0.4 0.7s-0.3 0.2-0.4 0.2c-0.2 0-0.3-0.1-0.4-0.3s-0.2-0.4-0.2-0.6v-0.9c0-0.3 0.1-0.6 0.1-1 0-0.3 0.1-0.7 0.2-1s0.1-0.7 0.1-1c0-0.2 0-0.3-0.1-0.3h-0.2-0.1-0.1-0.3c-0.1 0-0.3-0.1-0.4-0.2s-0.3-0.2-0.4-0.3-0.2-0.3-0.3-0.5c0-0.1-0.1-0.1-0.2-0.2-0.2 0.2-0.3 0.1-0.4 0.1"/>
<path class="logo__text" fill="#fff" d="m25.1 92.8h-0.3c-0.3 0.1-0.6 0.3-0.9 0.7s-0.5 0.8-0.7 1.4-0.3 1.2-0.3 1.9v0.4 0.9 0.1c0 0.4 0.1 0.7 0.3 0.9s0.4 0.4 0.7 0.4 0.7-0.2 1.3-0.6c0.5-0.3 0.9-0.8 1.2-1.3 0 0 0-0.1 0.1-0.1 0-0.5 0.2-1 0.3-1.5 0.1-0.2 0.1-0.3 0.2-0.5-0.1 0.3-0.3 0.6-0.4 0.9s-0.3 0.5-0.4 0.8c-0.2 0.2-0.3 0.5-0.5 0.7s-0.4 0.4-0.7 0.6-0.5 0.3-0.7 0.3h-0.1c-0.2 0-0.3-0.1-0.4-0.3s-0.1-0.5-0.2-0.8c0-0.3 0-0.7 0.1-1 0.2-0.1 0.5-0.2 0.7-0.4s0.5-0.4 0.7-0.6 0.4-0.5 0.6-0.7c0.2-0.3 0.3-0.5 0.4-0.7s0.1-0.5 0.1-0.7-0.1-0.4-0.3-0.5c-0.3-0.2-0.5-0.3-0.8-0.3m-1.4 3.3c0.1-0.3 0.2-0.7 0.3-1.1 0.2-0.4 0.3-0.7 0.5-1s0.4-0.5 0.6-0.6c0.1 0 0.1-0.1 0.2-0.1s0.2 0.1 0.3 0.2 0.1 0.2 0 0.4c0 0.2-0.1 0.3-0.2 0.5s-0.2 0.4-0.3 0.5c-0.1 0.2-0.3 0.4-0.4 0.5-0.2 0.2-0.3 0.3-0.5 0.4-0.2 0.2-0.4 0.3-0.5 0.3"/>
<path class="logo__text" fill="#fff" d="m31.8 90.2c-0.1 0-0.1 0.1-0.2 0.2-0.1 0.4-0.2 0.9-0.3 1.3-0.1 0.5-0.2 0.9-0.3 1.2-0.3-0.1-0.6-0.2-0.9-0.2h-0.1c-0.3 0-0.6 0.1-0.9 0.3s-0.6 0.4-0.8 0.7c-0.3 0.3-0.5 0.6-0.7 0.9s-0.4 0.7-0.5 1c-0.1 0.2-0.1 0.3-0.2 0.5-0.2 0.5-0.3 1-0.3 1.5s0 0.9 0.1 1.3 0.3 0.6 0.6 0.7c0.1 0 0.2 0.1 0.3 0.1h0.2c0.2 0 0.4-0.1 0.5-0.3 0.2-0.1 0.3-0.3 0.5-0.5s0.3-0.4 0.4-0.6c0.2-0.2 0.3-0.5 0.4-0.8s0.2-0.5 0.3-0.7 0.2-0.4 0.2-0.6c0-0.1 0.1-0.2 0.1-0.2 0 0.3-0.1 0.6-0.1 1-0.1 0.4-0.1 0.9-0.1 1.3v0.5c0 0.2 0.1 0.3 0.1 0.4 0.1 0.1 0.1 0.2 0.2 0.3s0.2 0.1 0.3 0.2h0.1c0.1 0 0.3 0 0.4-0.1 0.2-0.1 0.3-0.2 0.5-0.4 0.1-0.2 0.3-0.4 0.4-0.6 0.1-0.1 0.2-0.3 0.2-0.4v-0.9-0.2c-0.1 0.2-0.1 0.4-0.2 0.6s-0.2 0.4-0.3 0.7l-0.3 0.6c-0.1 0.2-0.2 0.3-0.3 0.4s-0.2 0.1-0.3 0.1h-0.1c-0.1 0-0.2-0.1-0.2-0.3s-0.1-0.5 0-0.8c0-0.5 0.1-1 0.2-1.6l0.3-1.8c0.1-0.2 0.1-0.5 0.2-0.9s0.2-0.8 0.3-1.1l0.3-1.2c0.1-0.4 0.2-0.7 0.2-0.9 0.1-0.5 0-0.6-0.2-0.7 0.1 0 0.1 0 0 0m-4.2 9h-0.1c-0.2-0.1-0.3-0.2-0.3-0.5s0-0.6 0.1-1 0.2-0.8 0.4-1.3 0.4-0.9 0.6-1.3c0.2-0.3 0.4-0.6 0.6-0.8s0.4-0.5 0.6-0.6c0.2-0.2 0.4-0.3 0.7-0.3h0.2c0.2 0 0.3 0 0.5 0.1-0.1 0.3-0.2 0.7-0.4 1.1-0.1 0.4-0.3 0.8-0.5 1.2s-0.3 0.8-0.5 1.2-0.4 0.7-0.6 1.1c-0.3 0.4-0.5 0.8-0.7 1-0.2 0-0.4 0.1-0.6 0.1"/>
<path class="logo__text" fill="#fff" d="m33.9 91c-0.2 0-0.3 0.1-0.4 0.2s-0.1 0.2-0.1 0.3 0 0.2 0.1 0.3 0.2 0.1 0.3 0.2h0.1c0.1 0 0.1 0 0.2-0.1s0.1-0.2 0.2-0.3v-0.4c-0.1-0.1-0.2-0.2-0.4-0.2m-0.4 1.9c-0.1 0-0.1 0-0.2 0.1-0.1 0-0.2 0.1-0.2 0.3 0 0.1-0.1 0.3-0.1 0.5s-0.1 0.4-0.2 0.6-0.1 0.5-0.2 0.8-0.1 0.5-0.2 0.8c-0.1 0.4-0.1 0.7-0.1 1.1v0.2 0.9 0.3c0.1 0.4 0.2 0.7 0.4 0.9s0.4 0.4 0.8 0.5h0.2c0.2 0 0.3 0 0.5-0.1s0.4-0.3 0.5-0.5c0.2-0.2 0.3-0.5 0.5-0.8 0.1-0.1 0.1-0.2 0.2-0.3v-1-0.2c0 0.1-0.1 0.2-0.1 0.3-0.1 0.3-0.2 0.6-0.4 0.8-0.1 0.3-0.3 0.5-0.4 0.7s-0.3 0.3-0.4 0.5c-0.1 0.1-0.2 0.1-0.3 0.1h-0.1c-0.2-0.1-0.3-0.2-0.4-0.4s-0.1-0.4-0.2-0.7v-0.9c0-0.3 0.1-0.7 0.1-1 0.1-0.3 0.1-0.6 0.2-0.9s0.1-0.6 0.2-0.8c0.1-0.3 0.1-0.5 0.2-0.7 0-0.2 0.1-0.4 0.1-0.5s0-0.2-0.1-0.2c-0.1-0.4-0.1-0.4-0.3-0.4 0.1 0 0 0 0 0"/>
<path class="logo__text" fill="#fff" d="m37.6 92.8h-0.3c-0.3 0.1-0.7 0.3-0.9 0.7-0.3 0.4-0.5 0.8-0.7 1.4-0.2 0.5-0.3 1.1-0.3 1.8v0.2 1 0.3c0 0.4 0.1 0.8 0.3 1s0.4 0.4 0.7 0.4 0.7-0.2 1.3-0.6c0.5-0.3 0.9-0.8 1.2-1.3 0.1-0.2 0.3-0.4 0.4-0.7 0-0.2 0-0.4 0.1-0.6 0-0.2 0-0.5 0.1-0.7-0.1 0.3-0.3 0.6-0.4 0.8-0.1 0.3-0.3 0.5-0.4 0.8-0.2 0.2-0.3 0.5-0.5 0.7s-0.4 0.4-0.7 0.6-0.5 0.3-0.7 0.3h-0.1c-0.2 0-0.3-0.1-0.4-0.3s-0.1-0.5-0.2-0.8c0-0.3 0-0.7 0.1-1 0.2-0.1 0.5-0.2 0.7-0.4s0.5-0.4 0.7-0.6 0.4-0.5 0.6-0.7c0.2-0.3 0.3-0.5 0.4-0.7s0.1-0.5 0.1-0.7-0.1-0.4-0.3-0.5c-0.3-0.3-0.6-0.4-0.8-0.4m-1.4 3.3c0.1-0.3 0.2-0.7 0.3-1.1s0.3-0.7 0.5-1 0.4-0.5 0.6-0.6c0.1 0 0.1-0.1 0.2-0.1s0.2 0.1 0.3 0.2 0.1 0.2 0 0.4c0 0.2-0.1 0.3-0.2 0.5s-0.2 0.4-0.3 0.5c-0.1 0.2-0.3 0.4-0.4 0.5-0.2 0.2-0.3 0.3-0.5 0.4-0.2 0.2-0.4 0.3-0.5 0.3"/>
<path class="logo__text" fill="#fff" d="m40.1 92.8c-0.1 0-0.1 0-0.2 0.1-0.1 0-0.1 0.1-0.1 0.2-0.1 0.7-0.2 1.3-0.2 1.9 0 0.3-0.1 0.5-0.1 0.8s0 0.5-0.1 0.7c0 0.2 0 0.4-0.1 0.6 0 0.3-0.1 0.5-0.1 0.8-0.1 0.5-0.1 1-0.2 1.5 0 0.1 0 0.1 0.1 0.2 0.1 0 0.1 0.1 0.2 0.1h0.1 0.2c0.1 0 0.1-0.1 0.2-0.1 0.1-0.3 0.1-0.7 0.2-1.2s0.2-0.9 0.4-1.4c0.1-0.5 0.3-1 0.5-1.4 0.2-0.5 0.4-0.9 0.6-1.2 0.2-0.4 0.4-0.6 0.6-0.8 0.1-0.1 0.3-0.2 0.4-0.2h0.2c0.2 0.1 0.4 0.2 0.4 0.5 0.1 0.2 0.1 0.5 0.1 0.8s-0.1 0.7-0.1 1c-0.1 0.4-0.2 0.8-0.2 1.1-0.1 0.4-0.2 0.7-0.2 1.1-0.1 0.4-0.1 0.7-0.1 0.9 0 0.3 0.1 0.5 0.2 0.7s0.3 0.2 0.6 0.2c0.2 0 0.4-0.1 0.6-0.2s0.3-0.3 0.5-0.6c0.2-0.2 0.3-0.5 0.4-0.7 0-0.1 0.1-0.2 0.1-0.2v-0.9-0.4c0 0.1 0 0.1-0.1 0.2-0.1 0.3-0.2 0.5-0.3 0.8s-0.2 0.6-0.4 0.8c-0.1 0.2-0.3 0.5-0.4 0.6-0.2 0.2-0.3 0.2-0.5 0.2-0.1 0-0.2-0.1-0.3-0.3v-0.7c0-0.3 0.1-0.6 0.2-1s0.2-0.7 0.2-1.1c0.1-0.4 0.1-0.8 0.2-1.1 0.1-0.4 0.1-0.7 0-1 0-0.3-0.1-0.6-0.2-0.8s-0.3-0.4-0.6-0.4h-0.3c-0.1 0-0.3 0-0.4 0.1-0.2 0.1-0.4 0.2-0.6 0.4s-0.3 0.4-0.5 0.7c-0.1 0.3-0.3 0.5-0.4 0.8s-0.2 0.5-0.3 0.8c-0.1 0.2-0.2 0.5-0.2 0.6 0-0.5 0.1-1 0.2-1.6 0.1-0.5 0.2-1 0.2-1.6 0-0.1 0-0.2-0.1-0.2-0.1-0.1-0.1-0.1-0.3-0.1"/>
<path class="logo__text" fill="#fff" d="m46.2 90.1h-0.2c-0.1 0-0.1 0.1-0.2 0.1l-0.5 2.8h-0.7c-0.1 0-0.2 0.1-0.2 0.2s0 0.2 0.2 0.2h0.7c0 0.3-0.1 0.6-0.1 0.9-0.1 0.4-0.1 0.8-0.2 1.2 0 0.3-0.1 0.6-0.1 0.9v0.4 0.9 0.3c0.1 0.4 0.2 0.7 0.3 0.9 0.1 0.3 0.4 0.4 0.6 0.5h0.3c0.2 0 0.3 0 0.4-0.1 0.2-0.1 0.4-0.3 0.6-0.5l0.1-0.1c-0.1-0.1-0.2-0.1-0.2-0.2l-0.1-0.1c-0.1 0.2-0.3 0.3-0.4 0.4s-0.2 0.1-0.3 0.1h-0.1c-0.1 0-0.2-0.2-0.3-0.4s-0.1-0.5-0.1-0.9v-1.2c0-0.4 0.1-0.8 0.1-1.2s0.1-0.8 0.1-1.1 0.1-0.6 0.1-0.8l1.1 0.1h0.1l0.1-0.1v-0.1l-0.1-0.1-1.1-0.1 0.4-2.7c0-0.1 0-0.1-0.1-0.2 0 0.1-0.1 0-0.2 0"/>
<path class="logo__text" fill="#fff" d="m49.5 92.3h-0.1c-0.1 0-0.2 0.1-0.2 0.2l-2.2 5.8v0.2s0 0.1 0.1 0.1l0.2 0.2c0.1 0.1 0.2 0.1 0.3 0.1s0.1 0 0.2-0.1l2-5.7c0.1 0.1 0.2 0.3 0.3 0.6l0.3 0.9c0.1 0.3 0.2 0.7 0.3 1 0.1 0.4 0.1 0.7 0.1 1-0.4 0.2-0.7 0.5-1 0.6-0.3 0.2-0.6 0.4-0.8 0.5s-0.3 0.3-0.3 0.5v0.5c0.1 0.2 0.1 0.3 0.3 0.5 0.1 0.2 0.3 0.3 0.5 0.4s0.4 0.1 0.6 0.1 0.4-0.1 0.6-0.2 0.3-0.3 0.4-0.5 0.2-0.5 0.2-0.7c0-0.3 0.1-0.5 0.1-0.8v-0.7c0.1-0.1 0.3-0.2 0.4-0.2 0.1-0.1 0.3-0.1 0.4-0.2s0.3-0.2 0.4-0.2c0.1-0.1 0.3-0.2 0.4-0.3s0.1-0.1 0.1-0.2 0-0.1-0.1-0.1l-0.1-0.1-0.1 0.1c-0.2 0.2-0.5 0.3-0.7 0.5-0.2 0.1-0.5 0.3-0.7 0.3-0.1-0.8-0.3-1.6-0.5-2.2s-0.4-1.1-0.6-1.5c-0.1-0.1-0.1-0.2-0.2-0.3s-0.2-0.1-0.3-0.2c-0.2 0.2-0.2 0.1-0.3 0.1m0.4 7.1h-0.2c-0.2 0-0.3-0.1-0.5-0.3-0.1-0.1-0.2-0.3-0.3-0.4-0.1-0.2 0-0.3 0.1-0.4s0.1-0.2 0.3-0.3c0.1-0.1 0.3-0.2 0.4-0.3 0.2-0.1 0.3-0.2 0.5-0.3s0.3-0.2 0.5-0.3v0.5c0 0.2 0 0.4-0.1 0.6 0 0.2-0.1 0.4-0.1 0.6-0.1 0.2-0.2 0.3-0.3 0.4 0 0.2-0.1 0.2-0.3 0.2"/>
<path class="logo__text" fill="#fff" d="m57.6 92.8h-0.3c-0.3 0.1-0.6 0.3-0.9 0.7s-0.5 0.8-0.7 1.4-0.3 1.2-0.3 1.9v1.3c0 0.4 0.1 0.8 0.3 1s0.4 0.4 0.7 0.4 0.7-0.2 1.3-0.6c0.5-0.3 0.9-0.8 1.2-1.3s0.6-1 0.8-1.5c-0.1-0.2-0.1-0.3-0.2-0.5v-0.1c-0.1 0.3-0.3 0.6-0.4 0.9s-0.3 0.5-0.4 0.8c-0.1 0.2-0.3 0.5-0.5 0.7s-0.4 0.4-0.7 0.6-0.5 0.3-0.7 0.3h-0.1c-0.2 0-0.3-0.1-0.4-0.3-0.3-0.1-0.3-0.3-0.3-0.7 0-0.3 0-0.7 0.1-1 0.2-0.1 0.5-0.2 0.7-0.4s0.5-0.4 0.7-0.6 0.4-0.5 0.6-0.7c0.2-0.3 0.3-0.5 0.4-0.7s0.1-0.5 0.1-0.7-0.1-0.4-0.3-0.5c-0.3-0.3-0.5-0.4-0.7-0.4m-1.5 3.3c0.1-0.3 0.2-0.7 0.3-1.1 0.2-0.4 0.3-0.7 0.5-1s0.4-0.5 0.6-0.6c0.1 0 0.1-0.1 0.2-0.1s0.2 0.1 0.3 0.2 0.1 0.2 0 0.4c0 0.2-0.1 0.3-0.2 0.5s-0.2 0.4-0.3 0.5c-0.1 0.2-0.3 0.4-0.4 0.5-0.2 0.2-0.3 0.3-0.5 0.4-0.2 0.2-0.3 0.3-0.5 0.3"/>
<path class="logo__text" fill="#fff" d="m59.5 92.7c-0.2 0-0.3 0-0.4 0.1-0.1 0-0.1 0.1-0.2 0.2 0.1 0.6 0.2 1.1 0.2 1.5 0.1 0.4 0.1 0.7 0.2 1v0.1c0.1 0.2 0.1 0.4 0.2 0.5 0 0.1 0.1 0.2 0.1 0.3 0.1 0.2 0.2 0.5 0.4 0.7l-1.1 2.3c0.1 0.2 0.1 0.3 0.1 0.4s0.1 0.1 0.1 0.2l0.2 0.1c0.1 0 0.1 0 0.1-0.1l1.1-2.1 0.3 0.6c0.1 0.2 0.3 0.4 0.4 0.6l0.5 0.5c0.2 0.1 0.4 0.2 0.6 0.2s0.5-0.1 0.7-0.2 0.4-0.3 0.5-0.6c0.1-0.1 0.2-0.3 0.2-0.4l0.1-1.5c-0.1 0.4-0.2 0.8-0.4 1.1-0.2 0.4-0.3 0.6-0.5 0.9-0.2 0.2-0.4 0.3-0.6 0.3s-0.4-0.1-0.5-0.2l-0.5-0.5c-0.1-0.2-0.3-0.4-0.4-0.6l-0.3-0.6 1.9-4.2c0.1-0.1 0.1-0.1 0-0.2 0-0.1-0.1-0.1-0.1-0.1h-0.1-0.1c-0.1 0-0.1 0.1-0.2 0.2l-1.6 3.6c-0.1-0.3-0.2-0.6-0.2-0.9-0.1-0.3-0.1-0.6-0.2-0.9 0-0.3-0.1-0.6-0.1-0.9s-0.1-0.6-0.1-0.9c0-0.1-0.1-0.1-0.2-0.2 0.1-0.2 0-0.3-0.1-0.3"/>
<path class="logo__text" fill="#fff" d="m66.7 93h-0.1c-0.2 0-0.4 0.1-0.6 0.3-0.2 0.1-0.3 0.3-0.5 0.5-0.1 0.2-0.3 0.4-0.4 0.7-0.1 0.2-0.2 0.5-0.3 0.7s-0.1 0.4-0.2 0.6l0.1-2.2c0-0.1 0-0.1-0.1-0.2 0 0-0.1-0.1-0.2-0.1h-0.1-0.1c-0.1 0-0.1 0.1-0.2 0.2l-0.2 3.5-0.1 1.5-0.3 4.9c0 0.2 0.1 0.3 0.2 0.3s0.2-0.1 0.3-0.2l0.3-3.9c0.2 0.1 0.4 0.1 0.6 0.1h0.3c0.3-0.1 0.6-0.2 0.9-0.3 0.3-0.2 0.5-0.4 0.7-0.7s0.4-0.6 0.5-1c0.2 0 0.4-0.1 0.7-0.2 0.2-0.1 0.4-0.2 0.6-0.4 0.1-0.1 0.2-0.1 0.2-0.2 0-0.2 0-0.4 0.1-0.7l-0.1 0.1c-0.1 0.1-0.2 0.3-0.4 0.4-0.1 0.1-0.3 0.2-0.4 0.3 0.1-0.1-0.1 0-0.3 0 0-0.1 0.1-0.3 0.1-0.5s0.1-0.5 0.1-0.7c0-0.3 0.1-0.5 0.1-0.8v-0.8c0-0.2-0.1-0.5-0.2-0.7s-0.2-0.3-0.4-0.4c-0.3-0.1-0.4-0.1-0.6-0.1m-2.1 5v-0.2c0-0.1 0-0.2 0.1-0.3 0-0.1 0-0.2 0.1-0.3 0-0.1 0-0.2 0.1-0.2 0-0.2 0.1-0.4 0.2-0.7s0.1-0.5 0.2-0.8 0.2-0.6 0.3-0.8c0.1-0.3 0.2-0.5 0.4-0.7 0.1-0.2 0.3-0.3 0.5-0.4 0.1-0.1 0.2-0.1 0.3-0.1h0.2c0.2 0.1 0.3 0.2 0.4 0.5s0.1 0.6 0.1 1 0 0.8-0.1 1.1c-0.1 0.4-0.1 0.7-0.3 1-0.1 0-0.3 0.1-0.5 0.1s-0.4 0.1-0.7 0.1c-0.2 0.1-0.5 0.1-0.7 0.2-0.3 0.2-0.5 0.3-0.6 0.5m0.5 1.1h-0.3c-0.2 0-0.3-0.1-0.4-0.1 0-0.2 0.1-0.4 0.3-0.5s0.3-0.3 0.6-0.4c0.2-0.1 0.5-0.2 0.8-0.3s0.5-0.1 0.8-0.1h0.1c-0.2 0.5-0.5 0.8-0.7 1-0.3 0.2-0.5 0.3-0.7 0.4h-0.5"/>
<path class="logo__text" fill="#fff" d="m71.1 92.8h-0.3c-0.3 0.1-0.6 0.3-0.9 0.7s-0.5 0.8-0.7 1.4c-0.1 0.3-0.2 0.7-0.3 1.1 0 0.2-0.1 0.4-0.1 0.7v0.2 1.3c0 0.4 0.1 0.8 0.3 1s0.4 0.4 0.7 0.4 0.7-0.2 1.3-0.6c0.5-0.3 0.9-0.8 1.2-1.3 0.1-0.2 0.2-0.3 0.3-0.5 0-0.3 0.1-0.5 0.1-0.8v-0.5l-0.3 0.6c-0.1 0.3-0.3 0.5-0.4 0.8-0.2 0.2-0.3 0.5-0.5 0.7s-0.4 0.4-0.7 0.6-0.5 0.3-0.7 0.3h-0.1c-0.2 0-0.3-0.1-0.4-0.3s-0.1-0.5-0.2-0.8c0-0.3 0-0.7 0.1-1 0.2-0.1 0.5-0.2 0.7-0.4s0.5-0.4 0.7-0.6 0.4-0.5 0.6-0.7c0.2-0.3 0.3-0.5 0.4-0.7s0.1-0.5 0.1-0.7-0.1-0.4-0.3-0.5c-0.1-0.3-0.3-0.4-0.6-0.4m-1.4 3.3c0.1-0.3 0.2-0.7 0.3-1.1 0.2-0.4 0.3-0.7 0.5-1s0.4-0.5 0.6-0.6c0.1 0 0.1-0.1 0.2-0.1s0.2 0.1 0.3 0.2 0.1 0.2 0 0.4c0 0.2-0.1 0.3-0.2 0.5s-0.2 0.4-0.3 0.5c-0.1 0.2-0.3 0.4-0.4 0.5-0.2 0.2-0.3 0.3-0.5 0.4-0.2 0.2-0.3 0.3-0.5 0.3"/>
<path class="logo__text" fill="#fff" d="m73.6 92.7h-0.2c-0.1 0-0.1 0.1-0.2 0.2 0 0.2-0.1 0.5-0.1 0.9s-0.1 0.8-0.1 1.2c0 0.3-0.1 0.6-0.1 0.9v0.5c0 0.3-0.1 0.6-0.1 0.8v0.5c0 0.4-0.1 0.7-0.1 1s0 0.5-0.1 0.6c0 0.1 0 0.1 0.1 0.2l0.2 0.1c0.1 0 0.1 0 0.2-0.1 0.1 0 0.1-0.1 0.1-0.2s0.1-0.4 0.1-0.8c0.1-0.4 0.1-0.8 0.2-1.4 0.1-0.5 0.2-1.1 0.3-1.7s0.2-1.2 0.3-1.7c0.1 0.1 0.2 0.2 0.2 0.3l0.3 0.3c0.1 0.1 0.2 0.1 0.4 0.2 0.1 0 0.2 0.1 0.3 0.1h0.1c0 0.3-0.1 0.6-0.1 0.9-0.1 0.3-0.1 0.7-0.2 1s-0.1 0.7-0.1 1v0.9c0 0.3 0.1 0.5 0.3 0.7 0.1 0.2 0.3 0.3 0.6 0.4h0.3c0.2 0 0.3 0 0.5-0.1s0.4-0.4 0.6-0.7c0.1-0.2 0.2-0.5 0.3-0.7 0-0.3-0.1-0.7 0-1.1 0 0.1 0 0.2-0.1 0.2-0.1 0.4-0.3 0.7-0.4 1s-0.3 0.5-0.4 0.7-0.3 0.2-0.4 0.2c-0.2 0-0.3-0.1-0.4-0.3s-0.2-0.4-0.2-0.6v-0.9c0-0.3 0.1-0.6 0.1-1 0-0.3 0.1-0.7 0.2-1s0.1-0.7 0.1-1c0-0.2 0-0.3-0.1-0.3h-0.2-0.1-0.1-0.3c-0.1 0-0.3-0.1-0.4-0.2s-0.3-0.2-0.4-0.3-0.2-0.3-0.3-0.5c0-0.1-0.1-0.1-0.2-0.2-0.1 0.1-0.2 0-0.4 0 0.1 0 0.1 0 0 0"/>
<path class="logo__text" fill="#fff" d="m78.8 90.1h-0.2c-0.1 0-0.1 0.1-0.2 0.1l-0.4 2.9h-0.7c-0.1 0-0.2 0.1-0.2 0.2s0 0.2 0.2 0.2h0.7c0 0.3-0.1 0.6-0.1 0.9-0.1 0.4-0.1 0.8-0.2 1.2 0 0.4-0.1 0.9-0.1 1.3v1.1 0.1c0.1 0.4 0.2 0.7 0.3 0.9 0.1 0.3 0.4 0.4 0.6 0.5h0.3c0.2 0 0.3 0 0.4-0.1 0.2-0.1 0.4-0.3 0.6-0.5l0.1-0.1c-0.1-0.1-0.2-0.1-0.2-0.2l-0.1-0.1c-0.1 0.2-0.3 0.3-0.4 0.4s-0.2 0.1-0.3 0.1h-0.1c-0.1 0-0.2-0.2-0.3-0.4s-0.1-0.5-0.1-0.9v-1.2c0-0.4 0.1-0.8 0.1-1.2s0.1-0.8 0.1-1.1 0.1-0.6 0.1-0.8l1.1 0.1h0.1l0.1-0.1v-0.1l-0.1-0.1-1.1-0.1 0.4-2.7c0-0.1 0-0.1-0.1-0.2 0 0-0.1-0.1-0.3-0.1 0.1 0 0.1 0 0 0"/>
<path class="logo__text" fill="#fff" d="m82.2 92.3h-0.1c-0.1 0-0.2 0.1-0.2 0.2l-2.2 5.8v0.2s0 0.1 0.1 0.1l0.2 0.2c0 0.2 0.1 0.2 0.2 0.2s0.1 0 0.2-0.1l2-5.7c0.1 0.1 0.2 0.3 0.3 0.6l0.3 0.9c0.1 0.3 0.2 0.7 0.3 1 0.1 0.4 0.1 0.7 0.1 1-0.4 0.2-0.7 0.5-1 0.6-0.3 0.2-0.6 0.4-0.8 0.5s-0.3 0.3-0.3 0.5v0.5c0.1 0.2 0.1 0.3 0.3 0.5 0.1 0.2 0.3 0.3 0.5 0.4s0.4 0.1 0.6 0.1 0.4-0.1 0.6-0.2 0.3-0.3 0.4-0.5 0.2-0.5 0.2-0.7c0-0.3 0.1-0.5 0.1-0.8v-0.7c0.1-0.1 0.3-0.2 0.4-0.2l0.4-0.2c0.1-0.1 0.3-0.2 0.4-0.2 0.1-0.1 0.3-0.2 0.4-0.3s0.1-0.1 0.1-0.2 0-0.1-0.1-0.1l-0.1-0.1-0.1 0.1c-0.2 0.2-0.5 0.3-0.7 0.5-0.2 0.1-0.5 0.3-0.7 0.3-0.1-0.8-0.3-1.6-0.5-2.2s-0.4-1.1-0.6-1.5c-0.1-0.1-0.1-0.2-0.2-0.3s-0.2-0.1-0.3-0.2c-0.1 0.1-0.2 0-0.2 0m0.4 7.1h-0.2c-0.2 0-0.3-0.1-0.5-0.3-0.1-0.1-0.2-0.3-0.3-0.4-0.1-0.2 0-0.3 0.1-0.4s0.1-0.2 0.3-0.3c0.1-0.1 0.3-0.2 0.4-0.3 0.2-0.1 0.3-0.2 0.5-0.3s0.3-0.2 0.5-0.3v0.5c0 0.2 0 0.4-0.1 0.6 0 0.2-0.1 0.4-0.1 0.6-0.1 0.2-0.2 0.3-0.3 0.4 0 0.2-0.2 0.2-0.3 0.2"/>
</svg>
